<svg width="68" height="60" viewBox="0 0 68 60" fill="none" xmlns="http://www.w3.org/2000/svg">
<path d="M0.799805 2.8125C0.799805 1.25391 2.05881 0 3.62375 0H8.97748C11.5661 0 13.8606 1.5 14.9313 3.75H63.2914C66.386 3.75 68.6451 6.67969 67.8333 9.65625L63.009 27.5039C62.0089 31.1836 58.6554 33.75 54.8313 33.75H20.8851L21.5205 37.0898C21.7794 38.4141 22.9443 39.375 24.2974 39.375H58.2201C59.785 39.375 61.044 40.6289 61.044 42.1875C61.044 43.7461 59.785 45 58.2201 45H24.2974C20.2262 45 16.7316 42.1172 15.9785 38.1445L9.90703 6.38672C9.82467 5.94141 9.43638 5.625 8.97748 5.625H3.62375C2.05881 5.625 0.799805 4.37109 0.799805 2.8125ZM15.8609 54.375C15.8609 53.6363 16.0069 52.9049 16.2908 52.2224C16.5746 51.5399 16.9906 50.9199 17.5151 50.3975C18.0395 49.8752 18.6622 49.4609 19.3474 49.1782C20.0326 48.8955 20.7671 48.75 21.5088 48.75C22.2504 48.75 22.9849 48.8955 23.6701 49.1782C24.3553 49.4609 24.978 49.8752 25.5024 50.3975C26.0269 50.9199 26.4429 51.5399 26.7267 52.2224C27.0106 52.9049 27.1566 53.6363 27.1566 54.375C27.1566 55.1137 27.0106 55.8451 26.7267 56.5276C26.4429 57.2101 26.0269 57.8301 25.5024 58.3525C24.978 58.8748 24.3553 59.2891 23.6701 59.5718C22.9849 59.8545 22.2504 60 21.5088 60C20.7671 60 20.0326 59.8545 19.3474 59.5718C18.6622 59.2891 18.0395 58.8748 17.5151 58.3525C16.9906 57.8301 16.5746 57.2101 16.2908 56.5276C16.0069 55.8451 15.8609 55.1137 15.8609 54.375ZM55.3961 48.75C56.894 48.75 58.3306 49.3426 59.3898 50.3975C60.449 51.4524 61.044 52.8832 61.044 54.375C61.044 55.8668 60.449 57.2976 59.3898 58.3525C58.3306 59.4074 56.894 60 55.3961 60C53.8982 60 52.4616 59.4074 51.4025 58.3525C50.3433 57.2976 49.7482 55.8668 49.7482 54.375C49.7482 52.8832 50.3433 51.4524 51.4025 50.3975C52.4616 49.3426 53.8982 48.75 55.3961 48.75Z" fill="#EBEBEB"/>
</svg>
