<?xml version="1.0" encoding="UTF-8"?>
<svg id="Layer_1" data-name="Layer 1" xmlns="http://www.w3.org/2000/svg" version="1.1" viewBox="0 0 30 30">
  <defs>
    <style>
      .cls-1 {
        fill: #ebebeb;
        fill-rule: evenodd;
        stroke-width: 0px;
      }
    </style>
  </defs>
  <path class="cls-1" d="M29.4,26.3c.8.8.8,2.2,0,3-.8.8-2.2.8-3,0l-11.3-11.3L3.7,29.4c-.8.8-2.2.8-3,0-.8-.8-.8-2.2,0-3l11.3-11.3L.6,3.7C-.2,2.8-.2,1.5.6.6,1.5-.2,2.8-.2,3.7.6l11.3,11.3L26.3.6c.8-.8,2.2-.8,3,0,.8.8.8,2.2,0,3l-11.3,11.3,11.3,11.3Z"/>
</svg>