<svg width="45" height="38" viewBox="0 0 45 38" fill="none" xmlns="http://www.w3.org/2000/svg">
<path d="M0 3.16667C0 1.4151 1.42288 0 3.18407 0H41.3929C43.154 0 44.5769 1.4151 44.5769 3.16667C44.5769 4.91823 43.154 6.33333 41.3929 6.33333H3.18407C1.42288 6.33333 0 4.91823 0 3.16667ZM0 19C0 17.2484 1.42288 15.8333 3.18407 15.8333H41.3929C43.154 15.8333 44.5769 17.2484 44.5769 19C44.5769 20.7516 43.154 22.1667 41.3929 22.1667H3.18407C1.42288 22.1667 0 20.7516 0 19ZM44.5769 34.8333C44.5769 36.5849 43.154 38 41.3929 38H3.18407C1.42288 38 0 36.5849 0 34.8333C0 33.0818 1.42288 31.6667 3.18407 31.6667H41.3929C43.154 31.6667 44.5769 33.0818 44.5769 34.8333Z" fill="#EBEBEB"/>
</svg>
