<svg width="56" height="56" viewBox="0 0 56 56" fill="none" xmlns="http://www.w3.org/2000/svg">
<path d="M28.0001 0.5C20.5315 0.5 19.595 0.531684 16.6618 0.665461C13.7347 0.798993 11.7357 1.26394 9.9864 1.94363C8.17803 2.64641 6.64442 3.58678 5.11564 5.11556C3.58678 6.64434 2.64641 8.17811 1.94371 9.98648C1.26386 11.7357 0.799075 13.7347 0.66538 16.6618C0.531602 19.595 0.5 20.5315 0.5 28.0001C0.5 35.4685 0.531602 36.405 0.66538 39.3382C0.799075 42.2653 1.26386 44.2643 1.94371 46.0135C2.6465 47.8219 3.58687 49.3555 5.11564 50.8844C6.64451 52.4132 8.17803 53.3536 9.9864 54.0564C11.7357 54.7361 13.7347 55.2009 16.6618 55.3345C19.595 55.4683 20.5315 55.5 28.0001 55.5C35.4685 55.5 36.405 55.4683 39.3382 55.3345C42.2653 55.201 44.2643 54.7361 46.0135 54.0564C47.8219 53.3536 49.3555 52.4132 50.8844 50.8844C52.4132 49.3555 53.3536 47.8219 54.0564 46.0135C54.7361 44.2643 55.201 42.2653 55.3345 39.3382C55.4683 36.405 55.5 35.4685 55.5 28.0001C55.5 20.5315 55.4683 19.595 55.3345 16.6618C55.201 13.7347 54.7361 11.7357 54.0564 9.98648C53.3536 8.17811 52.4132 6.64434 50.8844 5.11556C49.3555 3.58678 47.8219 2.64641 46.0135 1.94363C44.2643 1.26394 42.2653 0.798993 39.3382 0.665461C36.405 0.531684 35.4685 0.5 28.0001 0.5ZM28.0001 5.45492C35.3428 5.45492 36.2126 5.483 39.1124 5.6153C41.7936 5.73754 43.2497 6.18554 44.2187 6.56214C45.5024 7.06106 46.4184 7.65692 47.3807 8.61924C48.3431 9.58155 48.9389 10.4977 49.4379 11.7813C49.8145 12.7503 50.2625 14.2064 50.3847 16.8876C50.517 19.7874 50.5451 20.6572 50.5451 28C50.5451 35.3428 50.517 36.2126 50.3847 39.1124C50.2625 41.7936 49.8145 43.2497 49.4379 44.2187C48.9389 45.5024 48.3431 46.4184 47.3807 47.3807C46.4184 48.3431 45.5023 48.9389 44.2187 49.4379C43.2497 49.8145 41.7936 50.2625 39.1124 50.3847C36.2131 50.517 35.3433 50.5451 28 50.5451C20.6567 50.5451 19.7871 50.517 16.8876 50.3846C14.2064 50.2625 12.7503 49.8145 11.7813 49.4379C10.4976 48.9389 9.58155 48.3431 8.61932 47.3807C7.657 46.4184 7.06106 45.5023 6.56214 44.2187C6.18554 43.2497 5.73762 41.7936 5.6153 39.1124C5.483 36.2126 5.45492 35.3428 5.45492 28C5.45492 20.6572 5.483 19.7874 5.6153 16.8876C5.73762 14.2064 6.18554 12.7503 6.56214 11.7813C7.06106 10.4976 7.657 9.58155 8.61924 8.61932C9.58155 7.65692 10.4977 7.06106 11.7813 6.56214C12.7503 6.18554 14.2064 5.73754 16.8876 5.6153C19.7874 5.483 20.6572 5.45492 28 5.45492" fill="#EBEBEB"/>
<path d="M27.9991 37.1668C22.9364 37.1668 18.8324 33.0628 18.8324 28.0002C18.8324 22.9375 22.9364 18.8334 27.9991 18.8334C33.0617 18.8334 37.1657 22.9375 37.1657 28.0002C37.1657 33.0628 33.0617 37.1668 27.9991 37.1668ZM27.9991 13.8785C20.1999 13.8785 13.8774 20.2009 13.8774 28.0002C13.8774 35.7993 20.1999 42.1217 27.9991 42.1217C35.7983 42.1217 42.1207 35.7993 42.1207 28.0002C42.1207 20.2009 35.7983 13.8785 27.9991 13.8785ZM45.9787 13.3206C45.9787 15.1432 44.5011 16.6205 42.6786 16.6205C40.8562 16.6205 39.3786 15.1432 39.3786 13.3206C39.3786 11.498 40.8562 10.0205 42.6786 10.0205C44.5011 10.0205 45.9787 11.498 45.9787 13.3206Z" fill="#EBEBEB"/>
</svg>
