<?xml version="1.0" encoding="UTF-8"?>
<svg id="Layer_2" data-name="Layer 2" xmlns="http://www.w3.org/2000/svg" viewBox="0 0 500 234">
  <defs>
    <style>
      .cls-1 {
        fill: #fff;
      }

      .cls-2 {
        fill: #123783;
      }

      .cls-3 {
        fill: #1b2227;
      }
    </style>
  </defs>
  <g id="Layer_1-2" data-name="Layer 1">
    <path class="cls-3" d="M44.99,146.86c.11,.11,.22,.17,.28,.23,.06,.06,.17,.11,.22,.17-.17-.11-.33-.29-.5-.4h0Zm.5,.4c1.21,.97,3.14,2.46,6,3.26-2.2-.8-4.24-1.89-6-3.26Zm12.23-1.2c.06-.11,.11-.17,.17-.29,.22-.4,.44-.8,.66-1.26,.06-.17,.17-.29,.22-.46,.17-.34,.33-.69,.5-1.09,.06-.17,.17-.4,.22-.57,.17-.4,.33-.86,.44-1.32,.06-.23,.17-.46,.22-.69,.06-.11,.06-.29,.11-.4,0-.11,.06-.23,.06-.29-.77,2.86-1.82,4.93-2.59,6.36h0Zm-.06,.11h0s-.06,.06-.06,.11c0,0,0-.06,.06-.11Zm2.64-6.53s0-.06,0,0c.06-.17,.06-.29,.11-.4-.06,.11-.06,.29-.11,.4h0Zm-1.1-35.63c-.55-6.36-1.54-12.72-2.81-18.96-.44-2.23-.77-4.47-1.71-6.76-.55,.29-1.16,.52-1.6,.86-5.07,4.01-9.09,8.82-11.95,14.78-4.57,9.45-5.89,19.47-4.79,29.9,.61,5.56,1.98,10.94,4.85,15.87l.06,.06s.06,.06,.06,.11v.06c2.31,3.95,5.34,6.99,9.58,8.76,.44,.17,.88,.34,1.27,.52,.17,.06,.28,.17,.44,.23,.39,.29,.61,.74,1.16,1.55-.66-.11-1.16-.17-1.6-.23,.94,.23,1.71,.34,2.31,.34h-.06c-.06-.06-.11-.23-.11-.46,0-.52,.11-1.03,.22-1.55h0c.06-.23,.11-.52,.22-.74,.06-.11,.11-.23,.17-.29,0,0,0-.06,.06-.11v-.06c0-.06,.06-.11,.06-.11h0c0-.06,.06-.11,.11-.17,3.03-4.98,4.63-10.42,4.79-16.32,.22-9.16,.06-18.27-.72-27.26h0Zm-7.99,34.02c-.11,.34-.33,.63-.55,1.03-.39-.23-.72-.34-.88-.63-.83-1.26-1.76-2.52-2.42-3.89-1.65-3.49-2.59-7.16-2.92-11.05-.33-3.95-.17-7.85,.11-11.8,.28-3.49,1.1-6.87,2.37-10.08,.88-2.18,1.98-4.3,3.03-6.42,.28-.52,.77-.97,1.43-1.83,.17,.97,.28,1.32,.28,1.66,.22,4.75,.55,9.51,.61,14.26,.11,7.22,.06,14.49,.06,21.71,0,2.46-.33,4.75-1.1,7.05Zm18.01,5.67l-.06,.06c.11-.11,.28-.23,.39-.29-.17,.06-.22,.11-.33,.23h0Zm311.13-12.37c2.04-1.83,3.19-3.95,3.69-5.1-.99,2-2.2,3.72-3.69,5.1Zm-1.98,1.55c.06,0,.06-.06,.11-.06,.11-.06,.22-.11,.28-.23-.11,.06-.22,.17-.39,.29Zm-309.15,10.83l-.06,.06c.11-.11,.28-.23,.39-.29-.17,.06-.22,.11-.33,.23h0Zm-10.02-39.69c-.55-6.36-1.54-12.72-2.81-18.96-.44-2.23-.77-4.47-1.71-6.76-.55,.29-1.16,.52-1.6,.86-5.07,4.01-9.09,8.82-11.95,14.78-4.57,9.45-5.89,19.47-4.79,29.9,.61,5.56,1.98,10.94,4.85,15.87l.06,.06s.06,.06,.06,.11v.06c2.31,3.95,5.34,6.99,9.58,8.76,.44,.17,.88,.34,1.27,.52,.17,.06,.28,.17,.44,.23,.39,.29,.61,.74,1.16,1.55-.66-.11-1.16-.17-1.6-.23,.94,.23,1.71,.34,2.31,.34h-.06c-.06-.06-.11-.23-.11-.46,0-.52,.11-1.03,.22-1.55h0c.06-.23,.11-.52,.22-.74,.06-.11,.11-.23,.17-.29,0,0,0-.06,.06-.11v-.06c0-.06,.06-.11,.06-.11h0c0-.06,.06-.11,.11-.17,3.03-4.98,4.63-10.42,4.79-16.32,.22-9.16,.06-18.27-.72-27.26h0Zm-7.99,34.02c-.11,.34-.33,.63-.55,1.03-.39-.23-.72-.34-.88-.63-.83-1.26-1.76-2.52-2.42-3.89-1.65-3.49-2.59-7.16-2.92-11.05-.33-3.95-.17-7.85,.11-11.8,.28-3.49,1.1-6.87,2.37-10.08,.88-2.18,1.98-4.3,3.03-6.42,.28-.52,.77-.97,1.43-1.83,.17,.97,.28,1.32,.28,1.66,.22,4.75,.55,9.51,.61,14.26,.11,7.22,.06,14.49,.06,21.71,0,2.46-.33,4.75-1.1,7.05Zm6.5,8.02c.06-.11,.11-.17,.17-.29,.22-.4,.44-.8,.66-1.26,.06-.17,.17-.29,.22-.46,.17-.34,.33-.69,.5-1.09,.06-.17,.17-.4,.22-.57,.17-.4,.33-.86,.44-1.32,.06-.23,.17-.46,.22-.69,.06-.11,.06-.29,.11-.4,0-.11,.06-.23,.06-.29-.77,2.86-1.82,4.93-2.59,6.36h0Zm-.11,.11s.06,0,0,0c0,0-.06,.06-.06,.11,.06,0,.06-.06,.06-.11Zm2.7-6.53s0-.06,0,0c.06-.17,.06-.29,.11-.4-.06,.11-.11,.29-.11,.4h0Zm-14.82,7.62c1.21,.97,3.14,2.46,6,3.26-2.2-.8-4.24-1.89-6-3.26Zm-.5-.4c.11,.11,.22,.17,.28,.23,.06,.06,.17,.11,.22,.17-.17-.11-.33-.29-.5-.4h0Zm0,0c.11,.11,.22,.17,.28,.23,.06,.06,.17,.11,.22,.17-.17-.11-.33-.29-.5-.4h0Zm.5,.4c1.21,.97,3.14,2.46,6,3.26-2.2-.8-4.24-1.89-6-3.26Zm13.71-43.25c-.55-6.36-1.54-12.72-2.81-18.96-.44-2.23-.77-4.47-1.71-6.76-.55,.29-1.16,.52-1.6,.86-5.07,4.01-9.09,8.82-11.95,14.78-4.57,9.45-5.89,19.47-4.79,29.9,.61,5.56,1.98,10.94,4.85,15.87l.06,.06s.06,.06,.06,.11v.06c2.31,3.95,5.34,6.99,9.58,8.76,.44,.17,.88,.34,1.27,.52,.17,.06,.28,.17,.44,.23,.39,.29,.61,.74,1.16,1.55-.66-.11-1.16-.17-1.6-.23,.94,.23,1.71,.34,2.31,.34h-.06c-.06-.06-.11-.23-.11-.46,0-.52,.11-1.03,.22-1.55h0c.06-.23,.11-.52,.22-.74,.06-.11,.11-.23,.17-.29,0,0,0-.06,.06-.11v-.06c0-.06,.06-.11,.06-.11h0c0-.06,.06-.11,.11-.17,3.03-4.98,4.63-10.42,4.79-16.32,.22-9.16,.06-18.27-.72-27.26h0Zm-8.04,34.02c-.11,.34-.33,.63-.55,1.03-.39-.23-.72-.34-.88-.63-.83-1.26-1.76-2.52-2.42-3.89-1.65-3.49-2.59-7.16-2.92-11.05-.33-3.95-.17-7.85,.11-11.8,.28-3.49,1.1-6.87,2.37-10.08,.88-2.18,1.98-4.3,3.03-6.42,.28-.52,.77-.97,1.43-1.83,.17,.97,.28,1.32,.28,1.66,.22,4.75,.55,9.51,.61,14.26,.11,7.22,.06,14.49,.06,21.71,.06,2.46-.28,4.75-1.1,7.05Zm6.55,8.02c.06-.11,.11-.17,.17-.29,.22-.4,.44-.8,.66-1.26,.06-.17,.17-.29,.22-.46,.17-.34,.33-.69,.5-1.09,.06-.17,.17-.4,.22-.57,.17-.4,.33-.86,.44-1.32,.06-.23,.17-.46,.22-.69,.06-.11,.06-.29,.11-.4,0-.11,.06-.23,.06-.29-.77,2.86-1.82,4.93-2.59,6.36h0Zm-.11,.11s.06,0,0,0c0,0-.06,.06-.06,.11,.06,0,.06-.06,.06-.11Zm2.7-6.53s0-.06,0,0c.06-.17,.06-.29,.11-.4-.06,.11-.11,.29-.11,.4h0Zm8.92,4.07l-.06,.06c.11-.11,.28-.23,.39-.29-.17,.06-.22,.11-.33,.23h0Zm309.15-10.83c.06,0,.06-.06,.11-.06,.11-.06,.22-.11,.28-.23-.11,.06-.22,.17-.39,.29Zm1.98-1.55c2.04-1.83,3.19-3.95,3.69-5.1-.99,2-2.2,3.72-3.69,5.1Zm0,0c2.04-1.83,3.19-3.95,3.69-5.1-.99,2-2.2,3.72-3.69,5.1Zm-1.87,1.43c.11-.06,.22-.11,.28-.23-.11,.11-.28,.17-.39,.29q.06,0,.11-.06Zm-309.26,10.94l-.06,.06c.11-.11,.28-.23,.39-.29-.17,.06-.22,.11-.33,.23h0Zm-8.92-4.12c0-.11,.06-.23,.06-.34,0,.11-.06,.29-.06,.34s0,0,0,0h0Zm-2.42,6.19c.22-.4,.44-.8,.66-1.26,.06-.17,.17-.29,.22-.46,.17-.34,.33-.69,.5-1.09,.06-.17,.17-.4,.22-.57,.17-.4,.33-.86,.44-1.32,.06-.23,.17-.46,.22-.69,.06-.11,.06-.29,.11-.4,0-.11,.06-.23,.06-.29-.77,2.92-1.82,4.98-2.59,6.42,.06-.17,.11-.23,.17-.34h0Zm1.32-41.76c-.55-6.36-1.54-12.72-2.81-18.96-.44-2.23-.77-4.47-1.71-6.76-.55,.29-1.16,.52-1.6,.86-5.07,4.01-9.09,8.82-11.95,14.78-4.57,9.45-5.89,19.47-4.79,29.9,.61,5.56,1.98,10.94,4.85,15.87l.06,.06s.06,.06,.06,.11v.06c2.31,3.95,5.34,6.99,9.58,8.76,.44,.17,.88,.34,1.27,.52,.17,.06,.28,.17,.44,.23,.39,.29,.61,.74,1.16,1.55-.66-.11-1.16-.17-1.6-.23,.94,.23,1.71,.34,2.31,.34h-.06c-.06-.06-.11-.23-.11-.46,0-.52,.11-1.03,.22-1.55h0c.06-.23,.11-.52,.22-.74,.06-.11,.11-.23,.17-.29,0,0,0-.06,.06-.11v-.06c0-.06,.06-.11,.06-.11h0c0-.06,.06-.11,.11-.17,3.03-4.98,4.63-10.42,4.79-16.32,.22-9.16,.06-18.27-.72-27.26h0Zm-8.04,34.02c-.11,.34-.33,.63-.55,1.03-.39-.23-.72-.34-.88-.63-.83-1.26-1.76-2.52-2.42-3.89-1.65-3.49-2.59-7.16-2.92-11.05-.33-3.95-.17-7.85,.11-11.8,.28-3.49,1.1-6.87,2.37-10.08,.88-2.18,1.98-4.3,3.03-6.42,.28-.52,.77-.97,1.43-1.83,.17,.97,.28,1.32,.28,1.66,.22,4.75,.55,9.51,.61,14.26,.11,7.22,.06,14.49,.06,21.71,.06,2.46-.28,4.75-1.1,7.05Zm6.44,8.19s.06-.06,0,0c0,0-.06,.06-.06,.11,.06-.06,.06-.11,.06-.11Zm-6.11,4.3c-2.26-.8-4.24-1.89-6-3.26,1.27,1.03,3.14,2.46,6,3.26Zm-6.22-3.44c.06,.06,.17,.11,.22,.17-.17-.11-.33-.29-.5-.4,.06,.06,.17,.17,.28,.23h0Zm453.62-32.65c-1.05-2.75-3.08-4.18-5.95-4.18-.94,0-1.93,.17-2.86,.34-3.19,.69-5.51,2.75-7.55,5.27-2.53,3.09-5.23,5.96-8.15,8.59-1.49,1.37-2.97,2.81-5.07,3.67-1.54-1.03-2.15-2.46-2.31-4.01-.11-1.26-.11-2.58-.06-3.84,0-1.43,.61-2.69,1.49-3.72,.83-.97,1.6-1.95,2.53-2.81,4.85-4.64,9.69-9.34,14.65-13.86,3.36-3.09,6.5-6.42,9.47-9.91,.77-.86,1.43-1.89,1.93-2.92,1.6-3.32,.99-7.27-1.54-9.85-.83-.86-1.71-1.6-2.59-2.35-2.09-1.66-3.97-3.61-5.73-5.67-2.97-3.38-4.9-7.33-5.95-11.8-.5-2-.99-4.07-1.65-6.07-.77-2.41-2.42-4.12-4.74-4.81-2.59-.74-5.23-.74-7.77,.46-1.6,.8-2.97,1.95-4.3,3.15-3.91,3.55-7.82,7.16-11.73,10.71-1.49,1.32-2.97,2.58-4.52,3.84-.77,.63-1.6,.74-2.42,.23-3.14-1.89-6.11-4.01-8.21-7.22-1.05-1.6-2.15-3.15-3.19-4.75-1.16-1.78-2.42-3.44-4.24-4.47-2.64-1.6-5.34-1.83-7.93,.11-1.32,1.03-2.59,2.23-3.8,3.44-2.26,2.18-4.41,4.47-6.66,6.64-.39,.34-.88,.57-1.21,.74-1.1-.4-1.43-1.32-1.93-2-1.76-2.29-3.36-4.75-5.29-6.87-3.03-3.32-7.05-3.38-10.41-.34-.55,.46-1.05,1.03-1.49,1.55-1.05,1.26-2.04,2.52-3.14,3.72-1.1,1.2-2.2,2.41-3.36,3.49-.77,.74-1.43,.69-1.93-.23-.66-1.2-1.21-2.46-1.82-3.67-.66-1.32-1.1-2.69-1.93-3.89-2.86-4.3-7.6-5.73-12.17-2.29-1.05,.8-2.09,1.72-3.03,2.63-2.64,2.58-5.23,5.21-7.88,7.73-1.71,1.6-3.52,3.04-5.34,4.53-1.21,1.03-1.71,.97-2.75-.06-1.71-1.72-3.36-3.49-4.57-5.67-.99-1.72-1.98-3.44-3.03-5.16-3.3-5.1-8.7-5.9-13.16-2-1.21,1.03-2.37,2.18-3.58,3.26-2.31,2-4.63,3.95-6.99,5.9-.44,.34-1.05,.52-1.76,.8-.44-.86-.83-1.55-1.16-2.29-.44-.92-.72-1.89-1.27-2.69-1.93-2.75-3.3-3.49-6.83-2.46-.61,.17-1.1,.52-1.65,.8s-1.05,.69-1.54,1.03c-2.04,1.26-2.75,1.26-4.52-.29-.88-.74-1.71-1.6-2.48-2.46-.88-.97-1.76-2-2.64-3.09-1.32-1.66-2.86-2.98-4.57-4.12-2.75-1.95-6.83-1.6-8.92,.34-.66,.63-1.38,1.15-1.98,1.83-2.97,3.15-5.89,6.3-8.87,9.45-1.82,1.89-3.64,3.72-5.45,5.56-2.37,2.35-4.74,4.64-7.16,6.93-.22,.23-.55,.4-.94,.69-.22-.29-.39-.52-.5-.74-1.38-2.69-2.48-5.44-3.47-8.31-.83-2.52-1.76-4.98-2.64-7.45-.66-1.95-1.87-3.55-3.25-4.98-1.87-1.95-5.12-3.32-8.21-1.26-.99,.63-1.82,1.43-2.53,2.41-1.54,2.12-3.14,4.18-4.68,6.3-.39,.46-.66,1.15-1.6,.86-.06-.46-.11-.97-.17-1.49-.11-3.49,.11-6.99,.44-10.42,.44-4.18,1.65-8.02,3.8-11.57,1.32-2.18,3.08-4.01,4.79-5.84,2.75-2.86,5.67-5.5,9.25-7.27,2.09-1.03,4.24-1.78,6.61-1.72,.72,0,1.43,0,2.09-.06,2.48-.29,4.9-2.46,5.29-5.04,.44-2.52,.06-4.87-1.49-7.05-2.59-3.61-6.28-5.38-10.35-6.01-4.08-.63-8.26-.46-12.39,.11-3.97,.57-7.71,2-11.29,3.78-6.06,2.98-18.4,8.76-24.56,22-1.65,3.61-2.48,6.76-2.81,8.59-.28,2.12-.99,4.93-2.86,5.61-1.87,.69-3.03-1.37-6-1.43-3.64-.11-7.55,2.75-8.7,6.01-.39,1.03-.28,1.55-1.05,4.12-.5,1.55-.72,2.63-1.43,3.84-2.09,3.49-4.9,6.19-8.65,8.08-.66-.46-1.49-.92-2.15-1.43-3.14-2.52-6.22-5.1-9.36-7.62-1.49-1.15-2.97-2.29-4.57-3.21-1.71-1.03-3.58-1.55-5.56-1.43-2.31,.11-4.35,.86-5.67,2.92-.83,1.26-1.6,2.63-2.37,3.95-.72,1.26-1.38,2.52-2.15,3.78-1.05,1.72-2.15,3.32-3.25,5.04-1.38,2.06-2.75,4.01-4.68,5.56-.5,.34-1.05,.57-1.65,.92-.72-.92-1.32-1.66-1.87-2.46-1.43-2.12-2.42-4.47-3.19-6.93-.5-1.55-.88-3.15-1.49-4.7-.55-1.43-1.21-2.86-1.98-4.18-3.08-5.04-9.58-5.56-13.38-2.12-.77,.74-1.6,1.43-2.31,2.23-4.46,4.7-9.42,8.88-14.04,13.29-.5,.52-1.1,.92-1.71,1.32-.61,.46-1.32,.8-2.15,1.32-.22-.74-.39-1.26-.44-1.78-.99-7.56-3.8-14.43-7.71-20.85-1.21-2-2.42-4.01-3.58-6.13-2.04-3.78-3.52-7.79-3.69-12.2-.06-1.83-.28-3.67-.39-5.5-.11-2.18-.83-4.12-1.98-5.9-.99-1.49-2.31-2.63-4.02-2.98-3.3-.63-6.55-.52-9.25,2-1.38,1.26-2.7,2.63-4.02,3.95-3.25,3.38-6.77,6.47-10.63,8.99-3.08,2-6.22,3.84-9.36,5.67-5.73,3.32-11.29,6.76-16.14,11.4C5.5,50.4,.99,57.91,.11,67.42c-.22,2.06-.11,4.07,.44,6.01,1.32,4.93,4.85,7.05,8.59,7.16,2.31,.06,4.13-.86,5.51-2.75,.77-1.03,1.38-2.12,1.98-3.21,4.68-8.02,10.96-14.26,19.17-18.33,1.27-.63,2.53-1.32,3.86-1.78,2.2-.8,3.47-.23,4.68,1.83,.17,.29,.33,.63,.5,.97,1.38,2.69,1.27,5.67,1.27,8.59,0,.46-.44,.97-.77,1.32-.5,.52-1.16,.86-1.71,1.26-3.19,2.29-6.39,4.58-9.47,6.99-6,4.64-10.85,10.42-14.82,17.01-4.24,7.16-6.28,15.06-7.27,23.31-1.27,10.48-.5,20.85,2.64,30.93,2.97,9.62,8.32,17.53,16.52,23.14,6.39,4.35,13.33,5.5,20.71,3.49,2.26-.63,4.24-1.72,5.95-3.38,1.82-1.78,3.47-3.61,4.85-5.79,1.93-3.09,4.24-5.84,6.94-8.25,3.52-3.21,7.05-6.42,10.52-9.57,.28-.23,.55-.46,.83-.63,.55-.4,1.16-.46,1.76-.23,.39,.17,.83,.34,1.21,.57,2.92,1.83,5.84,3.72,8.32,6.3,1.38,1.43,2.7,2.92,4.13,4.24,1.65,1.55,3.52,2.81,5.78,3.04,3.91,.34,7.33-.74,10.02-3.84,1.65-1.89,3.19-3.89,4.79-5.84,.94-1.15,1.76-2.29,2.75-3.32,.94-1.03,1.6-1.09,2.48-.11,2.31,2.52,4.57,5.1,6.11,8.25,.66,1.37,1.71,2.58,2.04,4.24-.55,.17-1.05,.4-1.54,.46-3.3,.46-6.66,.74-9.91,1.32-5.45,.86-10.96,1.66-16.36,2.92-6.44,1.55-12.78,3.32-19,5.84-7.16,2.86-14.04,6.36-20.38,10.88-6.61,4.75-12.28,10.42-16.03,17.93-2.59,5.27-3.64,10.88-3.19,16.78,.28,3.21,.99,6.3,2.15,9.34,1.1,2.75,2.7,5.16,4.85,7.1,2.7,2.52,5.78,2.98,9.09,1.6,3.19-1.26,4.74-4.64,3.75-8.02-.17-.52-.39-1.03-.55-1.55-.33-1.32-.72-2.63-.99-4.01-.77-4.3,.22-8.13,2.92-11.57,2.53-3.26,5.67-5.73,9.2-7.68,4.96-2.75,10.19-4.58,15.59-5.96,8.59-2.23,17.29-3.49,26.11-3.89,5.45-.23,10.91-.34,16.36,.34,2.2,.29,4.41,.46,6.55,.74,2.81,.4,5.56,.74,8.37,1.26,5.78,1.09,11.51,2.58,17.18,4.3,2.81,.86,5.62,1.43,8.59,1.43,3.97,.06,6.94-1.6,9.09-5.04,.5-.86,1.05-1.66,1.6-2.58h3.47c6.61,0,13.22-.4,19.72-1.72,7.44-1.49,14.32-4.41,20.65-8.71,4.74-3.26,8.92-7.1,12.5-11.74,5.45-6.99,9.64-14.61,12.28-23.2,.11-.46,.22-.86,.44-1.32,.5-1.15,1.21-1.49,2.37-1.2,2.09,.52,3.97,1.55,5.45,3.15,2.26,2.41,4.02,5.1,5.4,8.13,1.05,2.41,1.93,4.93,2.97,7.33,.83,2,2.15,3.61,4.13,4.41,3.36,1.37,8.21,1.09,11.02-2.81,.61-.8,1.21-1.55,1.76-2.41,1.54-2.46,3.03-4.93,4.57-7.39,2.15-3.49,4.74-6.59,7.66-9.39,1.21-1.15,2.42-1.37,3.8-.63,.99,.57,2.04,1.09,2.97,1.78,3.36,2.58,6.22,5.61,8.43,9.39,.44,.8,.99,1.55,1.43,2.35,.72,1.32,1.82,2.23,2.86,3.21,2.59,2.29,8.7,2.29,11.18,.06,1.65-1.49,3.3-3.04,4.79-4.7,2.75-3.09,5.62-6.07,8.43-9.11,.5-.52,1.1-.97,1.65-1.37,.88-.63,1.76-.74,2.7-.11,.83,.57,1.71,1.03,2.42,1.66,2.2,1.83,4.41,3.67,6.22,5.96,1.27,1.6,2.75,3.09,4.13,4.64,1.38,1.49,2.86,2.75,4.68,3.55,3.47,1.6,6.83,1.72,9.91-.97,1.49-1.32,2.86-2.69,4.19-4.18,1.82-2,3.47-4.12,5.23-6.19,.33-.4,.77-.63,1.21-.97,2.04,1.6,3.52,3.49,5.12,5.33,1.6,1.83,3.14,3.72,4.79,5.5,1.6,1.78,3.58,2.58,5.95,2.52,3.14-.11,5.56-1.49,7.33-4.18,1.65-2.52,3.3-4.93,5.07-7.39,.55-.8,1.1-1.66,2.2-2,.28,.29,.61,.57,.83,.97,1.32,2.06,2.59,4.12,3.86,6.24,1.54,2.58,3.52,4.75,6.11,6.36,2.86,1.78,7.6,2.18,10.74-1.2,.77-.86,1.6-1.72,2.26-2.63,.94-1.32,1.76-2.75,2.7-4.07s1.98-2.58,2.97-3.84c.77-.97,1.76-1.03,2.86-.46,2.81,1.55,5.56,3.15,7.88,5.44,.39,.4,.77,.74,1.1,1.2,1.87,2.58,2.7,5.44,2.04,8.76-.94,4.41-3.3,7.62-6.72,10.14-1.93,1.43-4.08,2.58-6.22,3.55-2.75,1.2-3.91,4.47-2.81,7.33,1.16,3.15,3.64,4.7,6.5,5.56,2.97,.92,6.06,.8,9.2,.34,3.08-.46,6-1.32,8.65-3.15,6.39-4.35,10.68-10.54,13.66-17.76,.99-2.41,1.6-5.04,2.26-7.62,1.93-7.62,4.57-15.01,8.32-21.94,1.82-3.32,3.69-6.7,5.45-10.02,1.49-2.75,2.53-5.61,3.14-8.71,.61-2.92,.22-5.67-.83-8.36Zm-426.35,28.52c-2.75,2.29-5.56,4.53-8.21,6.87l-.11,.06c-.06,.06-.11,.11-.22,.23-.06,.06-.11,.11-.17,.17-.11,.11-.28,.29-.5,.46-.06,.06-.11,.11-.22,.17-.17,.11-.28,.29-.5,.46-.44,.4-.94,.97-1.6,1.6-.17,.11-.28,.29-.44,.46s-.39,.34-.55,.57c-.06,.06-.11,.11-.17,.17-.44,.46-.94,.97-1.43,1.49l-.06,.06c-.61,.57-1.21,.97-2.09,.17-.22,.74-.44,1.49-.66,2.29,.06-.11,.17-.23,.28-.34,.33-.4,.77-.34,1.27,.11h0c-.06,.17-.11,.34-.17,.52-1.16,3.44-3.3,6.01-6.83,7.27-3.75,1.32-7.44,1.2-11.07-.4-4.24-1.89-7.66-4.93-10.41-8.71-4.57-6.24-7.33-13.29-8.43-21.08-.77-5.73-.99-11.51-.5-17.3,.77-8.88,3.19-17.24,7.88-24.8,3.64-5.9,8.37-10.88,13.93-14.84,3.36-2.41,6.83-4.53,10.24-6.82,.39-.23,.77-.46,1.1-.69,.88-.57,1.38-1.37,1.32-2.52-.11-3.21,.06-6.47-.33-9.62-.72-5.38-3.36-9.57-7.88-12.37-1.27-.74-2.59-1.09-4.08-.8-1.76,.29-3.41,.69-5.12,1.32-6.44,2.41-12.34,5.84-17.46,10.54-3.75,3.44-6.83,7.39-9.25,11.91-.28,.57-.72,1.03-1.1,1.49-.06,.06-.17,0-.44,0-.44-1.72-.5-3.49-.17-5.27,.66-3.55,2.04-6.82,4.02-9.79,3.64-5.56,8.37-9.91,13.88-13.35,4.02-2.52,8.1-4.87,12.12-7.33,6.55-4.01,12.72-8.53,17.96-14.32,.66-.74,1.27-1.49,2.2-1.72,.77,.4,.66,1.09,.72,1.72,.17,2.12,.28,4.18,.55,6.3,.72,5.61,2.59,10.83,5.4,15.64,1.49,2.58,3.03,5.16,4.52,7.73,1.93,3.44,3.58,6.99,4.19,10.88,.5,2.98,.77,6.01,.77,8.99,.11,8.71,.06,17.41,.06,26.12v26.63c0,.8-.06,1.66,.06,2.46,.28,2.52,.88,4.87,2.92,6.53,.55,.46,.99,1.03,1.49,1.55-1.38,4.01-3.91,6.7-6.72,9.11h0Zm46.65-7.9c-3.75,5.1-7.71,10.02-12.01,14.61-.33,.34-.61,.69-.94,.97-1.21,1.15-1.98,1.2-3.25,.11-1.76-1.55-3.52-3.09-5.18-4.7-4.02-4.01-8.65-6.87-13.93-8.65-.83-.29-1.65-.57-2.48-.92-.11-.06-.22-.29-.5-.69,.28-.52,.44-1.03,.77-1.49,1.71-2.58,2.26-5.5,2.26-8.59,0-7.79,.06-15.58,.06-23.37,0-4.12,0-8.25-.06-12.37v-1.37c-.11-2.86-.44-5.61-2.04-8.13-.83-1.26-.66-1.89,.5-2.81,1.54-1.26,3.14-2.41,4.68-3.55,7.22-5.44,14.27-11.05,20.27-17.99,.44-.52,1.05-.97,1.49-1.32,1.05,.11,1.32,.8,1.6,1.49,.5,1.26,.94,2.58,1.32,3.89,2.26,8.19,6.88,14.72,13.22,20.05,.61,.52,1.21,1.03,1.76,1.6,.28,.23,.44,.57,.66,.92-.11,1.2-.72,2.06-1.49,2.81-2.81,2.86-5.67,5.79-8.48,8.65-.17,.17-.39,.34-.61,.57-5.34,5.27-10.74,10.6-16.08,15.87-1.65,1.6-2.97,3.49-3.25,5.84-.44,3.78-.11,7.5,1.82,10.88,.66,1.2,1.49,2.29,2.59,3.04,3.47,2.46,7.1,2.58,10.74,.74,1.32-.63,2.53-1.66,3.69-2.58,1.27-.97,2.42-2,3.75-3.15,.66,1.09,.99,2.12,1.05,3.21,.06,2.29-.55,4.53-1.93,6.42h0Zm-1.38-21.94c-.55,1.55-1.16,3.04-1.65,4.64-.5,1.72-1.43,3.15-2.59,4.41-1.1,1.26-2.31,2.52-3.64,3.55-1.38,1.09-2.42,.8-3.25-.8-1.49-2.86-1.76-5.73,.28-8.48,.66-.86,1.21-1.78,1.98-2.58,4.52-4.58,9.09-9.16,13.66-13.75,.55-.57,1.27-.97,1.87-1.43l.39,.4c-.72,1.26-1.38,2.52-2.15,3.72-1.82,3.32-3.52,6.7-4.9,10.31h0Zm8.48,24.63c-.99-.97-2.15-1.03-3.47-.8-.33-1.15,0-1.6,.72-1.72,.5-.11,.99,0,1.6,0-.5-1.26-1.05-2.29-1.32-3.44-1.16-5.38-1.05-10.71,.83-15.92,2.48-7.16,6.61-13.29,11.62-18.79,4.02-4.41,8.59-8.13,13.44-11.51,.28-.17,.55-.46,.83-.69,.06-.06,.06-.17,.17-.4-.17-1.2-.83-2.23-1.6-3.26-3.41-4.35-7.82-6.64-13.22-7.05-.77-.06-1.54-.17-2.59-.29,.28-.63,.39-1.03,.66-1.32,3.64-3.78,6.44-8.19,9.53-12.49,.61-.86,1.05-1.89,1.6-2.86,.28-.46,.61-.86,.99-1.37,.55,.34,1.05,.57,1.43,.86,3.19,2.58,6.44,5.16,9.53,7.85,1.98,1.72,3.8,3.55,5.56,5.44,1.71,1.89,2.81,4.18,3.69,6.59,.44,1.26,.28,2.35-.77,3.15-1.54,1.2-1.98,2.81-1.98,4.81,.06,13.75,0,27.49,0,41.24,0,5.56,2.37,9.28,7.44,11.51,.17,.97-.44,1.72-.94,2.41-2.7,3.84-5.56,7.56-8.76,10.94-.39,.4-.83,.69-1.16,.92-.94-.17-1.16-.86-1.49-1.49-2.26-3.89-4.57-7.79-6.88-11.68-.11-.23-.33-.4-.55-.63-.94,.17-1.49,.92-2.09,1.55-3.52,3.44-7.05,6.93-10.52,10.37-.61,.63-1.16,1.37-2.26,1.6-.28-.34-.66-.69-.94-1.15-.99-1.72-1.93-3.49-2.92-5.21-1.71-2.69-3.91-4.93-6.17-7.16h0Zm9.2-55.33c.44-.11,.66-.23,.88-.17,.94,.17,2.04,.29,2.37,1.37,.33,1.15-.66,1.78-1.38,2.35-.44,.4-.99,.63-1.76,1.15-.33-1.89-.22-3.32-.11-4.7Zm37.18,69.19c.99,1.15,1.32,2.23,1.65,3.49-1.1,.92-2.31,.4-3.75,.57,.17-.69,.17-1.15,.33-1.49,.44-.86,.88-1.78,1.76-2.58h0Zm-20.32,5.1c-.22,.23-.44,.52-.61,.57-2.64,.23-5.29,.97-8.15,.4,.22-.52,.28-.86,.5-1.09,1.71-2,3.3-4.18,5.45-5.9,1.82,1.66,2.31,3.84,2.81,6.01h0Zm20.98,33.79c-2.31-.06-4.57-.46-6.77-1.03-5.23-1.26-10.46-2.58-15.7-3.67-11.29-2.41-22.69-3.15-34.15-2.81-4.96,.17-9.86,.46-14.76,1.2-10.85,1.6-21.43,4.18-31.28,9.45-3.58,1.95-6.99,4.18-9.97,7.16-3.25,3.21-5.34,7.05-6.06,11.63-.55,3.15-.44,6.42,.72,9.45,.22,.57,.44,1.2,.5,1.83,0,.23-.39,.57-.66,.74-.11,.06-.55-.11-.61-.34-.44-.92-.83-1.83-1.16-2.75-.88-2.69-1.6-5.44-1.71-8.31-.22-4.81,1.27-9.22,3.58-13.29,2.15-3.72,4.96-6.87,8.26-9.57,8.54-6.99,18.23-11.74,28.53-15.18,7.49-2.46,15.09-4.24,22.8-5.79,7.71-1.55,15.48-2.63,23.24-3.49,6.83-.74,13.66-1.55,20.49-2.12,8.98-.69,17.96-.92,26.93-.69,1.54,.06,3.08,.23,5.23,.97-.99,.63-1.38,1.03-1.82,1.15-1.76,.57-3.52,1.2-5.29,1.66-3.3,.86-6.66,1.78-9.8,3.21-1.71,.74-3.36,1.66-4.85,2.69-2.37,1.6-3.58,3.95-3.36,6.99,.11,1.72,.88,3.15,1.93,4.47,1.49,1.83,3.19,3.38,5.12,4.7,.5,.34,.99,.69,1.43,1.03-.11,.74-.5,.69-.83,.69h0Zm60.64-26.75c-5.18,6.76-11.68,11.57-19.39,14.72-5.29,2.12-10.74,3.44-16.36,4.12-3.97,.46-7.93,.63-11.84,.63-2.48,0-4.9-.29-7.33-.52-.11,0-.28-.4-.28-.63,0-.11,.22-.34,.33-.34h4.74c4.13-.11,8.32,0,12.39-.34,.44-.06,.88-.06,1.32-.11,.17,0,.28,0,.44-.06,.28-.06,.61-.06,.94-.11h.22c.11,0,.28-.06,.39-.06h.11c.28-.06,.55-.06,.88-.11,.22,0,.44-.06,.66-.11h0c.11,0,.22-.06,.33-.06s.17-.06,.28-.06h.22c.11,0,.17-.06,.28-.06,.06,0,.17,0,.22-.06h.17c.11,0,.17-.06,.28-.06h.11c.33-.34,.88-.86,1.6-1.49-.5,.34-1.05,.63-1.93,.29,.22-.34,.39-.74,.61-.97l.11-.11c.88-.74,1.76-1.37,2.7-2.12,.11-.06,.17-.11,.28-.23,1.76-1.37,3.58-2.69,5.18-4.24,3.58-3.55,7.05-7.16,10.13-11.17,3.47-4.47,6.11-9.39,8.37-14.61,3.8-8.65,6-17.76,6.99-27.21,.55-5.38,.72-10.77,.33-16.21-.44-6.36-1.98-12.43-5.67-17.76-1.32-1.95-2.92-3.67-4.63-5.21-.11-.11-.33-.11-.66-.17-.39,.63-.77,1.32-1.16,2-2.26,4.24-4.35,8.59-6,13.12-.5,1.32-.72,2.63-.66,4.01v29.15c0,4.3,1.65,7.79,5.12,10.31,.44,.29,.83,.63,1.27,1.03,.11,.11,.17,.29,.39,.57-.83,2-2.48,3.38-3.8,5.04-1.32,1.6-2.59,3.26-3.97,4.81-1.43,1.6-2.59,3.49-4.24,4.7-.33-.17-.55-.17-.61-.29-.33-.4-.66-.86-.94-1.32-3.14-4.75-6.22-9.51-9.36-14.26,.17-.4,.22-.86,.44-1.09,2.09-2.06,2.42-4.81,2.53-7.56,.06-2.75,.06-5.5,.06-8.25v-39.87c-.06-1.66-.66-3.04-1.87-4.07-.55-.46-1.1-.92-1.71-1.32-2.15-1.49-4.3-1.49-6.33,.23-1.27,1.09-2.48,2.29-3.75,3.49-1.32,1.32-1.93,3.04-2.04,4.93-.11,2.46-.22,4.93-.28,7.45-.06,11.28-.06,22.57-.06,33.79,0,5.27,2.59,8.76,7.05,10.94,.77,.4,1.6,.69,2.42,1.09,.17,.06,.22,.23,.44,.52-.33,1.09-1.16,1.95-1.93,2.75-1.38,1.43-2.81,2.81-4.19,4.24-2.42,2.52-4.79,5.1-7.22,7.68-.44,.46-.94,.86-1.49,1.37-.44-.46-.83-.74-1.05-1.2-2.31-3.78-4.57-7.62-6.88-11.4-1.16-1.83-2.37-3.61-3.58-5.5,.28-.4,.44-.86,.72-1.15,1.76-2.06,2.53-4.47,2.53-7.27-.06-11.74,0-23.48,0-35.17,0-3.04,0-6.07,.11-9.05,.22-4.07-1.54-6.82-4.85-8.71-.77-.46-1.54-.8-2.37-1.26-.61-.34-1.27-.69-1.49-1.43,.39-.86,1.1-1.2,1.76-1.66,2.86-1.95,5.73-3.89,8.21-6.47,2.48-2.58,4.35-5.5,6-8.65,.44-.8,.83-1.55,1.38-2.58,.5,.57,.94,.92,1.1,1.37,.28,.74,.39,1.6,.55,2.41,.22,1.09,.39,2.18,.61,3.21,.88,4.07,3.14,6.82,7.1,8.02,2.75,.8,5.56,.97,8.37,.8,.5-.06,1.05-.17,1.49-.46,2.2-1.26,3.97-3.04,5.18-5.33,.66-1.26,.61-2.69,.22-4.01-.66-2.18-1.38-4.35-2.2-6.47-1.6-3.95-3.25-7.9-4.9-11.86-.28-.69-.61-1.32-.77-2.06-.11-.52-.11-1.09,.11-1.6,.39-.92,.83-1.83,1.32-2.69,3.58-6.01,7.82-11.51,13.05-16.1,5.78-5.04,12.28-8.53,19.77-9.91,3.58-.63,7.16-.74,10.74,.34,1.76,.57,2.2,.86,3.69,2.23-.33,.17-.61,.46-.94,.46-1.98-.06-3.86,.57-5.62,1.32-8.26,3.38-15.04,8.71-19.88,16.5-3.08,5.04-4.85,10.6-4.85,16.61-.06,9.05-.11,18.16-.17,27.21v5.04c2.59-2.75,4.9-5.16,7.1-7.62,2.2-2.52,4.3-5.1,6.39-7.68,2.04-2.58,3.97-5.27,5.95-7.85,.88,.29,.94,1.03,1.1,1.6,.5,1.55,.83,3.15,1.32,4.75,1.93,6.3,4.57,12.31,8.26,17.7,.99,1.43,1.32,2.86,1.1,4.64-1.1,9.74-1.43,19.53-1.87,29.33-.28,5.79-.44,11.57-1.05,17.3-1.54,12.2-5.84,23.6-13.44,33.51h0Zm150.09-29.1c-.06,.11-.11,.23-.17,.4-1.21,2.46-2.92,4.58-4.68,6.59-2.7,3.15-5.45,6.24-8.15,9.34-.83,.92-1.6,1.95-2.7,2.46-.94-.11-1.38-.86-1.98-1.43-2.92-2.86-5.84-5.84-8.87-8.59-3.25-2.98-6.88-5.38-11.02-6.93-.99-.34-2.04-.63-3.03-.97-.39-.11-.77-.34-1.27-.57,.22-.63,.39-1.15,.61-1.6,2.31-4.18,2.92-8.76,3.03-13.46,.11-3.78,.17-7.5,.17-11.28,.06-6.76,.11-13.58,.11-20.33,0-.92-.11-1.83-.11-2.75,0-1.43-.66-2.23-1.93-2.58-.5-.17-1.05-.29-1.6-.46-1.65,.86-2.97,2.23-4.35,3.49-.55,.46-.99,1.03-1.54,1.49-1.1,.92-1.82,.92-2.75-.11-1.21-1.32-2.37-2.75-3.52-4.12-2.31-2.75-4.79-5.33-7.49-7.9-2.42,1.78-4.3,3.89-5.34,6.7-.17,.46-.11,1.09-.11,1.6-.06,13.17-.11,26.41-.17,39.58,0,5.84,4.13,10.14,9.75,10.54,2.92,.23,5.34-.86,7.55-2.69,.17-.11,.33-.29,.5-.4,.11-.06,.17-.17,.28-.23,.11-.11,.22-.17,.39-.29,.61-.52,1.27-1.09,1.87-1.6l.06-.06c.28-.23,.61-.4,.83-.57,.5,.23,.5,.57,.28,.92,.33-.4,.55-.74,.72-.97,.11-.11,.28-.34,.44-.57,0,.11-.06,.23-.06,.34-.28,1.72-.22,2.41-.44,3.44-.22,1.32-.61,2.23-1.05,3.26-.83,1.95-1.82,3.44-2.75,4.75,1.98-2.12,3.3-4.64,4.74-7.05,.28,0,.5,.11,.55,.29v.23c0,.06,.06,.23,.06,.34h0c.11,1.49-.55,2.81-1.27,3.84l-.06,.06c-.55,.8-1.16,1.43-1.54,1.89-3.52,4.3-7.27,8.31-11.13,12.26-.61,.63-1.27,1.32-1.98,2-.28,.29-.72,.52-.99,.69-1.05-.29-1.54-1.09-2.09-1.78-.83-1.09-1.6-2.18-2.37-3.32-4.41-6.53-10.41-10.77-17.51-13.63-.33-.11-.66-.23-.99-.4-.17-.06-.28-.23-.55-.46-.06-.63-.11-1.37-.22-2.18-.22,.06-.44,0-.55,.11-1.27,1.89-3.19,3.15-4.85,4.58-5.18,4.41-9.47,9.57-13.16,15.29-.94,1.43-1.93,2.86-2.92,4.24-.33,.46-.66,.86-1.05,1.2-.66,.63-1.43,.4-1.54-.52-.61-3.49-2.26-6.53-4.02-9.51-2.2-3.67-5.01-6.87-8.54-9.22-2.48-1.66-5.18-2.81-8.15-2.92-2.04-.06-4.02,0-6.06,0-.33,0-.72-.06-1.1-.06-.5-1.37,.17-2.35,.83-3.26,1.49-2.18,2.97-4.3,4.52-6.42,3.03-4.18,5.73-8.59,8.1-13.17,.17-.29,.44-.52,.61-.8,.28,.11,.5,.11,.55,.23,2.64,5.96,6.33,11.17,10.41,16.15,1.27,1.55,2.75,2.81,4.19,4.18,.39,.4,.83,.69,1.32,.92,.72,.4,1.49,.46,2.26-.11,1.82-1.37,3.36-2.98,4.3-5.1,1.05-2.29,1.16-4.64,.17-6.93-.61-1.43-1.38-2.75-2.31-4.01-2.2-2.86-4.74-5.38-7.6-7.62-4.68-3.72-9.42-7.45-13.66-11.74-3.25-3.26-6.06-6.87-7.99-11.17-.72-1.6-1.21-3.21-.99-5.27,5.18-4.3,10.13-9.05,14.98-13.98,4.85-4.93,9.64-9.91,14.43-15.41,.83,1.03,1.43,1.78,2.04,2.58,1.98,2.58,4.08,5.1,6.5,7.22,.99,.86,2.09,1.66,3.25,2.35,2.04,1.2,4.19,1.32,6.33,.29,.77-.4,1.54-.86,2.37-1.2,.83-.34,1.32-.11,1.76,.63,.61,1.09,.77,2.46,2.04,3.32-.5,.57-.94,1.15-1.49,1.55-3.47,2.86-6.94,5.67-10.35,8.48-1.32,1.09-2.59,2.23-3.58,3.15-.66,1.37,.17,2.75-1.05,3.61-.94,.17-1.71-.4-2.42-.86-1.71-1.15-3.36-2.41-5.01-3.61-2.09-1.49-4.19-3.04-6.28-4.53-2.2,1.83-4.13,3.67-5.89,5.73-1.71,2.06-1.87,4.53-.61,6.87,.77,1.49,1.98,2.58,3.3,3.49,2.7,1.78,5.34,3.49,8.1,5.16,4.74,2.81,9.47,5.61,13.66,9.34,2.48,2.23,4.63,4.81,6.06,7.9,1.65,3.55,2.48,7.16,2.26,10.88v.23s.72-2.18,2.15-6.24c-.77,.29-.99-.17-.99-.63-.17-2.41-.33-4.75-.39-7.16-.06-7.45-.06-14.84-.06-22.28v-2.18c.06-1.55-.39-2.86-1.27-4.07-.44-.63-1.1-1.2-1.1-2.18,.66-1.2,1.93-1.78,3.03-2.52,6.39-4.58,12.78-9.11,19.11-13.75,2.2-1.66,4.13-3.67,6.22-5.5,.44-.4,.94-.74,1.54-1.26,.99,2.06,1.76,4.01,2.75,5.79,1.1,1.89,2.31,3.67,3.69,5.33,1.32,1.6,2.81,3.04,4.41,4.3s3.41,2.29,5.12,3.44c4.02-3.32,7.99-6.53,11.84-9.85,3.8-3.26,7.33-6.82,10.8-10.77,.44,.57,.83,.97,.99,1.43,.61,1.6,1.16,3.26,1.71,4.87,1.71,4.87,3.86,9.45,7.1,13.4,2.7,3.26,5.62,6.3,9.42,8.31,.22,.11,.39,.34,.66,.63-.61,1.55-1.65,2.81-2.75,3.95-2.2,2.35-4.52,4.64-6.77,6.93-5.67,5.79-11.29,11.57-16.96,17.36-2.7,2.75-3.75,6.19-3.25,10.02,.17,1.6,.55,3.26,1.05,4.81,1.93,5.56,7.05,8.59,13.27,6.53,2.75-.92,4.96-2.75,6.83-5.04,.06-.06,.11-.11,.17-.23,.44-.57,.88-1.15,1.38-1.6,.22-.23,.55-.29,.88-.46,.11,.29,.28,.52,.22,.63,.17,.52,.33,1.2,.33,2.12,.06,1.43-.33,2.58-.77,3.61,.28-.63,.66-1.26,.94-1.83,.66,.06,.61,.52,.55,.8-.11,1.37-.55,2.63-1.1,3.84h0Zm-58.66-43.82c.44,.34,.99,.63,1.38,1.09,2.7,3.32,6.17,5.67,9.53,8.25,.44,.34,.88,.63,1.27,.97,.55,.4,.83,.97,.83,1.66v.57c-.06,4.75-.11,9.51-.17,14.26,0,1.09-.39,1.89-1.1,2.69-1.76,1.95-3.52,3.84-5.56,5.44-.5,.4-.99,.8-1.49,1.09-1.87,1.15-3.91,.46-4.68-1.72-.33-.92-.44-1.95-.44-2.98-.11-2.92-.11-5.84-.11-8.76v-20.05c.06-.86-.22-1.72,.55-2.52h0Zm58.11,25.83c-1.76,.29-3.03,1.37-3.97,2.92-1.16,2-2.64,3.61-4.35,5.1-.72,.63-1.54,1.2-2.42,1.66-1.32,.69-2.04,.46-2.92-.8-1.54-2.23-1.82-5.67-.33-8.02,.99-1.49,2.09-2.92,3.36-4.24,2.81-3.04,5.67-5.96,8.54-8.94,.72-.8,1.43-1.6,2.15-2.41,.22-.23,.55-.4,1.05-.69,.39,2.75,.33,11.91-.06,15.06-.28,.06-.66,.29-1.05,.34h0Zm57.23,23.66c-3.25,4.58-6.61,9.05-10.19,13.29-.17,.17-.44,.29-.66,.46-.99-.11-1.32-.92-1.76-1.55-1.6-2.29-3.14-4.64-4.68-6.99-1.6-2.52-3.19-5.04-4.74-7.62-.22-.4-.44-.8-.66-1.2-.88-1.26-.66-2.35,.28-3.44,.44-.46,.77-.97,1.21-1.49,2.09-2.58,2.97-5.5,2.97-8.88,0-12.72-.06-25.49,.11-38.2,.06-5.04-2.53-7.73-6.33-9.85-.94-.52-1.82-.52-2.75,0-.44,.29-.99,.46-1.38,.8-2.09,1.66-4.19,3.38-6.22,5.04-1.05,.86-1.49,2-1.54,3.32,0,1.43-.06,2.92-.06,4.41,0,9.74-.11,19.42-.06,29.15,0,3.26,.22,6.59,.5,9.85,.28,2.75,1.1,5.38,2.75,7.62,.66,.86,1.32,1.72,2.42,2,.33,.11,.61,.34,1.05,.63-1.38,3.38-8.59,12.89-11.24,14.89-1.65-1.43-2.86-3.38-4.46-4.87-1.6-1.55-3.25-3.09-4.85-4.7-1.6-1.55-3.19-3.15-4.85-4.7,.17-1.55,.88-2.81,1.54-4.07,.55-1.03,1.16-2.06,1.71-3.09,.88-1.72,1.49-3.49,1.6-5.5,.17-3.21,.5-6.42,.5-9.62,.06-10.71-.06-21.42,.06-32.13,.06-5.04-2.09-8.76-5.73-11.8-.83-.69-1.76-1.2-2.37-2.29,1.16-1.83,3.03-2.81,4.46-4.18,1.43-1.37,2.86-2.69,4.24-4.12,1.43-1.49,2.75-3.04,4.3-4.75,.44,.52,.77,.86,1.05,1.26,2.04,3.55,4.3,6.93,7.44,9.57,.94,.8,1.93,1.6,2.92,2.35,.28,.23,.61,.29,1.1,.52,2.81-2.46,5.84-4.64,8.48-7.27,2.64-2.58,5.18-5.21,7.88-7.9,.28,.4,.55,.69,.77,1.09,3.58,7.1,8.37,13.12,14.82,17.53,.22,.17,.39,.4,.55,.57,.06,.06,.06,.17,.11,.4-.5,.86-1.32,1.49-2.09,2.29-3.25,3.32-3.3,3.32-3.3,8.08-.11,13.17-.22,26.41-.33,39.58,0,1.2-.11,2.41-.11,3.55,0,.57-.06,1.09,0,1.66,.22,2.86,1.32,5.1,4.08,6.19,.88,.34,1.76,.74,2.64,1.15-.11,1.32-.61,2.18-1.16,2.98h0Zm51.55-20.96c-.11,.8-.11,1.66-.44,2.41-.72,1.95-1.43,3.95-2.42,5.79-2.2,4.3-4.63,8.42-6.88,12.66-2.86,5.33-5.07,10.83-6.28,16.84-.55,2.58-1.27,5.16-1.98,7.68-.94,3.15-2.15,6.19-3.75,9.05-1.76,3.21-4.13,5.96-6.99,8.13-3.52,2.69-7.6,3.72-11.95,3.55-.39,0-.77-.23-1.54-.46,.55-.46,.77-.69,1.05-.8,6.66-2.46,10.85-7.62,13.88-13.98,1.71-3.61,2.09-7.56,1.38-11.57-.55-3.15-2.09-5.84-4.3-8.02-2.59-2.58-5.51-4.58-8.65-6.24-2.64-1.43-5.4-2.69-8.15-3.89-2.15-.97-2.48-1.83-1.49-4.01,.06-.06,.06-.17,.11-.23,2.09-3.49,2.64-7.27,2.59-11.28-.11-11.74-.06-23.48-.06-35.17,0-.8-.06-1.66-.06-2.46,.06-3.09-.5-6.01-2.2-8.65-.33-.52-.5-1.15-.72-1.6,.17-.97,.83-1.32,1.43-1.72,6.11-4.01,11.9-8.53,17.35-13.4,2.2-1.95,4.24-4.18,6.33-6.24,.55-.57,1.16-1.09,1.82-1.6,.17-.17,.5-.17,.66-.23,.88,.4,.83,1.2,.99,1.89,.55,2.58,1.16,5.16,2.15,7.62,2.86,6.99,6.88,12.94,12.89,17.36,.88,.63,1.6,1.37,2.59,2.18-.88,1.83-2.04,2.92-3.14,4.12-3.97,4.41-8.21,8.53-12.5,12.6-3.97,3.78-7.88,7.56-11.79,11.4-.77,.74-1.49,1.6-2.04,2.52-.5,.8-1.05,1.78-1.21,2.75-.77,4.98-.55,9.85,1.87,14.43,.44,.86,.99,1.72,1.65,2.46,2.26,2.81,5.4,3.89,9.31,2.41,1.27-.52,2.53-1.32,3.64-2.18,4.79-3.44,9.03-7.62,12.78-12.26,.72-.92,1.49-1.83,2.31-2.63,.28-.29,.83-.57,1.16-.46,.5,.06,.72,.63,.61,1.26h0Zm-111.92,11.97c2.04-1.83,3.19-3.95,3.69-5.1-.99,1.95-2.2,3.72-3.69,5.1Zm-1.87,1.43c.11-.06,.22-.11,.28-.23-.11,.11-.28,.17-.39,.29q.06,0,.11-.06Zm-309.31,10.94c.11-.11,.28-.23,.39-.29-.11,.11-.22,.17-.33,.29h-.06Zm-8.87-4.12c0-.11,.06-.23,.06-.34,0,.11-.06,.29-.06,.34s0,0,0,0h0Zm-2.42,6.19c.22-.4,.44-.8,.66-1.26,.06-.17,.17-.29,.22-.46,.17-.34,.33-.69,.5-1.09,.06-.17,.17-.4,.22-.57,.17-.4,.33-.86,.44-1.32,.06-.23,.17-.46,.22-.69,.06-.11,.06-.29,.11-.4,0-.11,.06-.23,.06-.29-.77,2.92-1.82,4.98-2.59,6.42,.06-.17,.11-.29,.17-.34h0Zm1.32-41.76c-.55-6.36-1.54-12.72-2.81-18.96-.44-2.23-.77-4.47-1.71-6.76-.55,.29-1.16,.52-1.6,.86-5.07,4.01-9.09,8.82-11.95,14.78-4.57,9.45-5.89,19.47-4.79,29.9,.61,5.56,1.98,10.94,4.85,15.87l.06,.06s.06,.06,.06,.11v.06c2.31,3.95,5.34,6.99,9.58,8.76,.44,.17,.88,.34,1.27,.52,.17,.06,.28,.17,.44,.23,.39,.29,.61,.74,1.16,1.55-.66-.11-1.16-.17-1.6-.23,.94,.23,1.71,.34,2.31,.34h-.06c-.06-.06-.11-.23-.11-.46,0-.52,.11-1.03,.22-1.55h0c.06-.23,.11-.52,.22-.74,.06-.11,.11-.23,.17-.29,0,0,0-.06,.06-.11v-.06c0-.06,.06-.11,.06-.11h0c0-.06,.06-.11,.11-.17,3.03-4.98,4.63-10.42,4.79-16.32,.22-9.16,.06-18.27-.72-27.26h0Zm-8.04,34.02c-.11,.34-.33,.63-.55,1.03-.39-.23-.72-.34-.88-.63-.83-1.26-1.76-2.52-2.42-3.89-1.65-3.49-2.59-7.16-2.92-11.05-.33-3.95-.17-7.85,.11-11.8,.28-3.49,1.1-6.87,2.37-10.08,.88-2.18,1.98-4.3,3.03-6.42,.28-.52,.77-.97,1.43-1.83,.17,.97,.28,1.32,.28,1.66,.22,4.75,.55,9.51,.61,14.26,.11,7.22,.06,14.49,.06,21.71,.06,2.41-.28,4.75-1.1,7.05Zm6.44,8.13s.06,0,0,0c0,0-.06,.06-.06,.11,.06,0,.06-.06,.06-.11Zm-6.11,4.35c-2.26-.8-4.24-1.89-6-3.26,1.27,.97,3.14,2.46,6,3.26Zm-6.22-3.44c.06,.06,.17,.11,.22,.17-.17-.11-.33-.29-.5-.4,.06,.06,.17,.17,.28,.23h0Zm-.28-.23c.11,.11,.22,.17,.28,.23,.06,.06,.17,.11,.22,.17-.17-.11-.33-.29-.5-.4h0Zm.5,.4c1.21,.97,3.14,2.46,6,3.26-2.26-.8-4.24-1.89-6-3.26Zm13.71-43.25c-.55-6.36-1.54-12.72-2.81-18.96-.44-2.23-.77-4.47-1.71-6.76-.55,.29-1.16,.52-1.6,.86-5.07,4.01-9.09,8.82-11.95,14.78-4.57,9.45-5.89,19.47-4.79,29.9,.61,5.56,1.98,10.94,4.85,15.87l.06,.06s.06,.06,.06,.11v.06c2.31,3.95,5.34,6.99,9.58,8.76,.44,.17,.88,.34,1.27,.52,.17,.06,.28,.17,.44,.23,.39,.29,.61,.74,1.16,1.55-.66-.11-1.16-.17-1.6-.23,.94,.23,1.71,.34,2.31,.34h-.06c-.06-.06-.11-.23-.11-.46,0-.52,.11-1.03,.22-1.55h0c.06-.23,.11-.52,.22-.74,.06-.11,.11-.23,.17-.29,0,0,0-.06,.06-.11v-.06c0-.06,.06-.11,.06-.11h0c0-.06,.06-.11,.11-.17,3.03-4.98,4.63-10.42,4.79-16.32,.22-9.16,.06-18.27-.72-27.26h0Zm-8.04,34.02c-.11,.34-.33,.63-.55,1.03-.39-.23-.72-.34-.88-.63-.83-1.26-1.76-2.52-2.42-3.89-1.65-3.49-2.59-7.16-2.92-11.05-.33-3.95-.17-7.85,.11-11.8,.28-3.49,1.1-6.87,2.37-10.08,.88-2.18,1.98-4.3,3.03-6.42,.28-.52,.77-.97,1.43-1.83,.17,.97,.28,1.32,.28,1.66,.22,4.75,.55,9.51,.61,14.26,.11,7.22,.06,14.49,.06,21.71,.06,2.46-.28,4.75-1.1,7.05Zm6.55,8.02c.06-.11,.11-.17,.17-.29,.22-.4,.44-.8,.66-1.26,.06-.17,.17-.29,.22-.46,.17-.34,.33-.69,.5-1.09,.06-.17,.17-.4,.22-.57,.17-.4,.33-.86,.44-1.32,.06-.23,.17-.46,.22-.69,.06-.11,.06-.29,.11-.4,0-.11,.06-.23,.06-.29-.77,2.81-1.82,4.93-2.59,6.36h0Zm-.11,.11s.06,0,0,0c0,0-.06,.06-.06,.11,.06,0,.06-.06,.06-.11Zm2.7-6.53s0-.06,0,0c.06-.17,.06-.29,.11-.4-.06,.11-.11,.29-.11,.4h0Zm8.92,4.01l-.06,.06c.11-.11,.28-.23,.39-.29-.17,.06-.22,.17-.33,.23h0Zm309.15-10.83c.06,0,.06-.06,.11-.06,.11-.06,.22-.11,.28-.23-.11,.11-.22,.23-.39,.29Zm1.98-1.49c2.04-1.83,3.19-3.95,3.69-5.1-.99,1.95-2.2,3.72-3.69,5.1Zm-311.13,12.31l-.06,.06c.11-.11,.28-.23,.39-.29-.17,.06-.22,.17-.33,.23h0Zm-10.02-39.64c-.55-6.36-1.54-12.72-2.81-18.96-.44-2.23-.77-4.47-1.71-6.76-.55,.29-1.16,.52-1.6,.86-5.07,4.01-9.09,8.82-11.95,14.78-4.57,9.45-5.89,19.47-4.79,29.9,.61,5.56,1.98,10.94,4.85,15.87l.06,.06s.06,.06,.06,.11v.06c2.31,3.95,5.34,6.99,9.58,8.76,.44,.17,.88,.34,1.27,.52,.17,.06,.28,.17,.44,.23,.39,.29,.61,.74,1.16,1.55-.66-.11-1.16-.17-1.6-.23,.94,.23,1.71,.34,2.31,.34h-.06c-.06-.06-.11-.23-.11-.46,0-.52,.11-1.03,.22-1.55h0c.06-.23,.11-.52,.22-.74,.06-.11,.11-.23,.17-.29,0,0,0-.06,.06-.11v-.06c0-.06,.06-.11,.06-.11h0c0-.06,.06-.11,.11-.17,3.03-4.98,4.63-10.42,4.79-16.32,.22-9.16,.06-18.27-.72-27.26h0Zm-8.04,34.02c-.11,.34-.33,.63-.55,1.03-.39-.23-.72-.34-.88-.63-.83-1.26-1.76-2.52-2.42-3.89-1.65-3.49-2.59-7.16-2.92-11.05-.33-3.95-.17-7.85,.11-11.8,.28-3.49,1.1-6.87,2.37-10.08,.88-2.18,1.98-4.3,3.03-6.42,.28-.52,.77-.97,1.43-1.83,.17,.97,.28,1.32,.28,1.66,.22,4.75,.55,9.51,.61,14.26,.11,7.22,.06,14.49,.06,21.71,.06,2.46-.28,4.75-1.1,7.05Zm6.55,8.02c.06-.11,.11-.17,.17-.29,.22-.4,.44-.8,.66-1.26,.06-.17,.17-.29,.22-.46,.17-.34,.33-.69,.5-1.09,.06-.17,.17-.4,.22-.57,.17-.4,.33-.86,.44-1.32,.06-.23,.17-.46,.22-.69,.06-.11,.06-.29,.11-.4,0-.11,.06-.23,.06-.29-.77,2.81-1.82,4.93-2.59,6.36h0Zm-.11,.11s.06,0,0,0c0,0-.06,.06-.06,.11,.06,0,.06-.06,.06-.11Zm2.7-6.53s0-.06,0,0c.06-.17,.06-.29,.11-.4-.06,.11-.11,.29-.11,.4h0Zm-14.82,7.62c1.21,.97,3.14,2.46,6,3.26-2.26-.8-4.24-1.89-6-3.26Zm-.5-.4c.11,.11,.22,.17,.28,.23,.06,.06,.17,.11,.22,.17-.17-.11-.33-.29-.5-.4h0Zm335.37-15.52c2.04-1.83,3.19-3.95,3.69-5.1-.99,1.95-2.2,3.72-3.69,5.1Zm-1.98,1.49c.06,0,.06-.06,.11-.06,.11-.06,.22-.11,.28-.23-.11,.11-.22,.23-.39,.29Zm-309.15,10.83l-.06,.06c.11-.11,.28-.23,.39-.29-.17,.06-.22,.17-.33,.23h0Zm-19.28,4.41c-.17-.11-.33-.23-.55-.34-.44-.29-.88-.63-1.27-.92-.17-.11-.33-.23-.5-.34-.17-.11-.33-.23-.44-.34-.17-.11-.28-.23-.44-.34-.17-.11-.28-.23-.44-.34-.5-.46-.99-.86-1.43-1.26l-.44-.46c-.17-.17-.33-.29-.5-.46-.11-.11-.22-.23-.28-.29-.61-.63-1.05-1.15-1.43-1.6-.06-.06-.11-.17-.17-.23-.39-.46-.61-.8-.77-1.03l-.06-.06c2.31,3.95,5.34,6.99,9.58,8.76-.33-.4-.61-.57-.88-.74h0Z"/>
    <path class="cls-2" d="M248.67,82.94c-.39,2.52-.66,5.1-.83,7.62-.61,11.8-1.21,23.6-1.76,35.4-.22,4.87-1.1,9.68-2.31,14.32-1.93,7.27-4.96,14.09-9.36,20.16-3.97,5.5-8.54,10.25-14.38,13.58-.61,.34-1.21,.69-1.82,1.03-.33,.17-.66,.34-.99,.52-.22,.11-.39,.17-.61,.29-.22,.11-.39,.17-.61,.29-.22,.11-.39,.17-.61,.29-.44,.17-.83,.4-1.27,.57-.33,.17-.72,.29-1.05,.46-.11,.06-.22,.06-.28,.11-.22,.11-.44,.17-.66,.23-.17,.06-.33,.11-.5,.17-.33,.11-.66,.23-.99,.34-.11,0-.17,.06-.28,.11-.28,.11-.61,.17-.88,.29-.33,.11-.66,.23-.99,.29-.17,.06-.39,.11-.55,.17-.06,0-.17,.06-.22,.06-.17,.06-.39,.11-.55,.17-.55,.17-1.05,.29-1.6,.4-.17,.06-.33,.06-.5,.11-.39,.11-.77,.17-1.1,.23-.39,.06-.72,.17-1.1,.23,.33-.34,.88-.86,1.6-1.49,.77-.52,1.54-1.09,2.26-1.66,.06-.06,.11-.06,.11-.06,6.83-4.87,12.39-11.11,17.4-17.93,2.64-3.55,4.68-7.56,6.5-11.63,3.14-6.87,5.4-14.09,6.66-21.65,.61-3.55,.88-7.05,1.27-10.6,.44-4.18,.44-8.42,.17-12.6-.22-3.09-.61-6.19-1.43-9.22-1.71-6.3-4.79-11.57-9.8-15.58-.44-.4-.99-.63-1.54-.97-.99,.69-1.21,1.72-1.71,2.52-.5,.86-.94,1.78-1.38,2.63-.5,.97-.99,1.95-1.49,2.92-.44,.86-.88,1.78-1.38,2.63-.44,.8-.39,1.95-1.49,2.81,0-3.72,.06-7.16,.06-10.54,2.37-2.41,4.68-4.64,6.83-6.99,2.26-2.46,4.46-4.98,6.55-7.56,2.04-2.46,3.91-5.1,5.84-7.62,.22,.11,.33,.11,.33,.17,.83,3.67,2.09,7.16,3.58,10.6,1.71,4.01,3.69,7.9,6.22,11.46,.61,.97,.77,1.78,.61,2.92h0Z"/>
    <path class="cls-2" d="M339.38,127.9c.11-.11,.28-.34,.44-.57,0,.11-.06,.23-.06,.34-.28,1.72-.22,2.41-.44,3.44-.22,1.32-.61,2.23-1.05,3.26-.83,1.95-1.82,3.44-2.75,4.75-1.98,2.12-3.75,4.35-5.78,6.42-1.98,2-3.75,4.3-6.17,6.13-1.1-1.26-1.93-2.52-2.86-3.72-1.43-1.83-2.81-3.78-4.41-5.44-3.41-3.49-7.49-6.07-11.9-8.08-.88-.4-1.76-.8-2.75-1.26,.11-.8,.11-1.55,.28-2.23,.17-.92,.44-1.78,.66-2.69,.06-.23,.11-.46,.17-.69s.11-.46,.11-.63c.06-.23,.06-.4,.11-.63,.06-.23,.06-.46,.11-.69,.06-.23,.06-.46,.06-.63s.06-.4,.06-.57c0,0,.72-2.18,2.15-6.24,0-.86,.06-1.72,.06-2.63v-29.38c0-1.66-.39-3.26-1.38-4.64-.28-.4-.44-.92-.66-1.49,.33-.23,.55-.46,.72-.57,4.35-3.09,8.76-6.19,13.11-9.28,4.46-3.26,9.09-6.3,13.05-10.31,.11-.11,.33-.11,.5-.17,.06,.06,.17,.06,.22,.17,.22,.4,.44,.8,.61,1.2,3.14,6.59,7.71,11.74,14.1,15.06,.22,.11,.33,.34,.5,.52-4.41,4.24-9.64,8.76-11.35,9.68-.39-.46-.77-.92-1.16-1.43-2.75-3.09-5.51-6.13-8.32-9.22-.5-.52-.99-1.03-1.6-1.43-.88-.69-1.54-.69-2.37,.06-1.6,1.32-3.03,2.81-4.19,4.58-.83,1.26-1.21,2.58-1.21,4.12,.06,3.32,0,6.59-.06,9.91-.11,10.08-.17,20.16-.28,30.24,0,1.66,.11,3.26,.72,4.87,2.42,6.07,8.1,7.73,12.12,7.33,.17,0,.33-.06,.5-.06,3.97-.52,6.83-2.86,9.25-6.01,.11-.11,.17-.23,.28-.34,.5-.46,.72-.8,.88-1.03h0Z"/>
    <path class="cls-2" d="M76.28,133.46c-1.65-1.6-2.48-3.55-2.64-5.79-.11-1.26-.11-2.58-.11-3.84,0-12.2,.06-24.4,0-36.54-.06-6.47-.22-13-.44-19.47-.22-5.1-1.38-9.97-3.86-14.43-1.65-2.98-3.41-6.01-5.18-8.94-3.75-6.36-5.84-13.29-6.28-20.73,0-.34-.11-.69-.17-1.03-.28,.06-.5,0-.61,.11-2.48,2.92-5.29,5.33-8.32,7.62-4.52,3.38-9.14,6.47-14.04,9.28-4.3,2.46-8.65,4.98-12.56,8.13-3.75,2.98-6.88,6.53-9.36,10.71-1.21,2.06-2.04,4.24-2.7,6.53-.11,.4-.06,.8-.06,1.26,.83-.06,.94-.69,1.21-1.15,4.46-6.82,10.3-11.91,17.35-15.75,2.81-1.55,5.73-2.86,8.76-3.89,1.16-.4,2.37-.69,3.58-1.03,2.53-.63,4.9-.06,6.99,1.55,4.08,3.15,6.83,7.05,7.49,12.43,.5,3.84,.28,7.68,.33,11.51,0,.8-.39,1.37-.99,1.83-1.49,1.03-2.97,2-4.41,2.98-2.86,1.95-5.84,3.78-8.59,5.84-7.99,6.01-13.82,13.75-17.24,23.43-3.08,8.88-3.97,17.99-3.19,27.32,.55,6.64,2.31,12.94,5.29,18.84,2.42,4.75,5.56,8.94,9.97,11.91,2.48,1.66,5.12,2.92,8.1,3.04,4.52,.17,8.1-1.37,10.35-5.67,.22-.46,.44-.86,.72-1.26h0c.22-.74,.44-1.55,.66-2.29,.28-.4,.55-.86,.88-1.26,2.31-2.52,4.74-4.93,7.33-7.05,.17-.11,.28-.23,.44-.34,.17-.11,.33-.29,.44-.4,.28-.23,.55-.46,.83-.69,1.76-1.43,3.03-2.52,5.07-4.24,2.42-2,4.52-4.35,6-7.45-.33-.34-.66-.74-1.05-1.09h0Zm-15.15,.52c0,.4-.06,.8-.06,1.15,0,.29-.06,.52-.06,.74,0,.17-.06,.29-.06,.46v.17c-.72,5.33-2.59,8.53-3.69,10.42-.06,.06-.06,.11-.11,.23-.88,1.55-1.71,2.75-2.31,3.55v.06c-.06,.11-.17,.23-.22,.29s-.11,.06-.17,.06c-.61-.06-1.38-.17-2.31-.34-.22-.06-.39-.11-.55-.17-2.86-.8-4.74-2.29-6-3.26h0c-.06-.06-.17-.11-.22-.17-.11-.06-.22-.17-.28-.23-.11-.11-.28-.23-.39-.34-.11-.06-.22-.17-.28-.29-.17-.11-.33-.29-.5-.46-.11-.11-.22-.17-.28-.29l-.39-.4-.28-.29c-.22-.23-.39-.4-.55-.63,0,0-.06-.06-.06-.11-.22-.23-.44-.52-.61-.74l-.06-.06c-.22-.29-.44-.57-.61-.86-.22-.29-.44-.63-.61-.92s-.39-.63-.55-.97c-2.48-4.41-3.91-9.22-4.68-14.21-1.21-8.25-.77-16.5,1.49-24.46,2.7-9.79,7.77-17.99,15.81-24,1.05-.74,2.15-1.26,3.41-1.43,.83,2.29,1.38,4.7,1.82,7.05,1.38,7.1,2.64,14.21,3.19,21.42,.44,5.67,.55,11.34,.66,17.01-.22,3.95-.33,8.02-.55,12.03h0Z"/>
    <path class="cls-1" d="M240.74,60.94c-.5-1.55-.83-3.15-1.32-4.75-.17-.57-.22-1.26-1.1-1.6-1.98,2.58-3.91,5.27-5.95,7.85-2.09,2.63-4.19,5.21-6.39,7.68s-4.52,4.87-7.1,7.62v-5.04c.06-9.05,.11-18.16,.17-27.21,0-6.01,1.76-11.57,4.85-16.61,4.85-7.85,11.62-13.17,19.88-16.5,1.76-.74,3.64-1.37,5.62-1.32,.28,0,.55-.29,.94-.46-1.49-1.37-1.93-1.66-3.69-2.23-3.52-1.09-7.16-.97-10.74-.34-7.49,1.37-13.99,4.87-19.77,9.91-5.23,4.58-9.47,10.08-13.05,16.1-.5,.86-.99,1.72-1.32,2.69-.17,.46-.17,1.09-.11,1.6,.17,.69,.5,1.37,.77,2.06,1.65,3.95,3.3,7.9,4.9,11.86,.83,2.12,1.54,4.3,2.2,6.47,.39,1.32,.44,2.75-.22,4.01-1.21,2.29-2.92,4.12-5.18,5.33-.44,.23-.99,.4-1.49,.46-2.81,.17-5.62,0-8.37-.8-4.02-1.15-6.22-3.89-7.1-8.02-.22-1.09-.39-2.18-.61-3.21-.17-.8-.28-1.66-.55-2.41-.17-.46-.61-.8-1.1-1.37-.55,.97-.94,1.78-1.38,2.58-1.65,3.15-3.58,6.07-6,8.65s-5.34,4.47-8.21,6.47c-.66,.46-1.38,.8-1.76,1.66,.22,.74,.83,1.09,1.49,1.43,.77,.46,1.6,.8,2.37,1.26,3.3,1.89,5.07,4.64,4.85,8.71-.17,3.04-.11,6.07-.11,9.05,0,11.74-.06,23.48,0,35.17,0,2.81-.72,5.21-2.53,7.27-.28,.34-.44,.74-.72,1.15,1.21,1.89,2.42,3.67,3.58,5.5,2.31,3.78,4.57,7.62,6.88,11.4,.28,.4,.66,.74,1.05,1.2,.61-.52,1.1-.92,1.49-1.37,2.42-2.52,4.79-5.1,7.22-7.68,1.38-1.43,2.81-2.81,4.19-4.24,.77-.8,1.6-1.66,1.93-2.75-.22-.29-.33-.46-.44-.52-.83-.4-1.65-.69-2.42-1.09-4.41-2.18-7.05-5.61-7.05-10.94,0-11.28,0-22.57,.06-33.79,0-2.46,.17-4.93,.28-7.45,.06-1.89,.66-3.61,2.04-4.93,1.21-1.2,2.42-2.41,3.75-3.49,2.04-1.72,4.19-1.72,6.33-.23,.61,.4,1.16,.86,1.71,1.32,1.21,1.03,1.82,2.46,1.87,4.07v39.87c0,2.75,0,5.5-.06,8.25-.06,2.75-.44,5.5-2.53,7.56-.22,.23-.28,.63-.44,1.09,3.14,4.75,6.28,9.51,9.36,14.26,.28,.46,.61,.92,.94,1.32,.11,.11,.28,.17,.61,.29,1.71-1.2,2.86-3.09,4.24-4.7,1.38-1.55,2.64-3.15,3.97-4.81,1.32-1.66,3.03-3.04,3.8-5.04-.17-.29-.22-.46-.39-.57-.39-.34-.83-.69-1.27-1.03-3.41-2.52-5.12-5.96-5.12-10.31v-29.15c0-1.37,.22-2.69,.66-4.01,1.65-4.53,3.75-8.88,6-13.12,.39-.69,.77-1.37,1.16-2,.33,.11,.55,.11,.66,.17,1.71,1.6,3.3,3.26,4.63,5.21,3.69,5.33,5.18,11.4,5.67,17.76,.39,5.38,.22,10.77-.33,16.21-.99,9.45-3.19,18.56-6.99,27.21-2.26,5.16-4.96,10.14-8.37,14.61-3.08,4.01-6.55,7.68-10.13,11.17-1.6,1.55-3.41,2.86-5.18,4.24-.11,.06-.17,.11-.28,.23-.66,.52-1.6,1.09-2.7,2.12l-.11,.11c-.94,.97-1.65,1.83-2.09,2.46h0c-.22,.06-.44,.06-.66,.11-.28,.06-.55,.11-.88,.11h-.11c-.11,0-.28,.06-.39,.06h-.22c-.28,.06-.61,.06-.94,.11-.17,0-.28,.06-.44,.06-.44,.06-.88,.11-1.32,.11-4.13,.34-8.26,.29-12.39,.34h-4.74c-.11,0-.33,.23-.33,.34,.06,.23,.17,.63,.28,.63,2.42,.23,4.9,.52,7.33,.52,3.97,.06,7.93-.11,11.84-.63,5.62-.69,11.07-2,16.36-4.12,7.71-3.15,14.27-7.96,19.39-14.72,7.6-9.91,11.9-21.31,13.22-33.91,.61-5.73,.77-11.51,1.05-17.3,.44-9.79,.72-19.59,1.87-29.33,.22-1.78-.11-3.21-1.1-4.64-3.58-4.98-6.17-11-8.1-17.3h0Zm-23.35,5.21c-.11,16.21-.33,32.42-.44,48.63,0,4.75,.17,9.51,.28,14.26,.06,3.84,1.87,6.76,4.57,9.22,.44,.4,.94,.8,1.38,1.2-.83,1.6-7.66,9.79-9.97,11.97-1.76-2.12-3.03-4.64-4.63-6.93-1.54-2.23-3.47-4.18-4.46-6.59,.06-.23,0-.34,.06-.4,2.09-2.98,2.37-6.42,2.37-9.91,0-13.86,.11-27.67,.17-41.53,0-1.37,0-2.75,.06-4.12,.06-3.26-1.27-5.61-3.97-7.22-.77-.46-1.54-.8-2.37-1.15-1.38-.63-2.75-.52-4.13,.11-3.52,1.66-6.06,4.35-7.6,8.02-.39,.86-.44,1.95-.5,2.92-.11,3.38-.11,6.76-.17,10.2-.06,9.62-.11,19.25-.17,28.87,0,1.03,0,2,.06,3.04,.28,5.04,2.75,8.53,6.94,10.88,.66,.4,1.38,.69,2.15,1.09-.22,.4-.28,.69-.44,.86-3.91,4.07-7.82,8.13-11.79,12.2-.06-.06-.17-.06-.22-.11s-.17-.11-.22-.17c-3.14-5.1-6.28-10.2-9.36-15.18,0-1.03,.55-1.6,1.05-2.29,.72-1.09,1.21-2.23,1.21-3.55,.06-1.72,.22-3.49,.22-5.21,.06-13.4,.11-26.75,.17-40.15v-2.46c.11-4.12-1.87-6.93-5.07-8.99-.83-.52-1.65-.97-2.64-1.49,.72-.92,1.6-1.32,2.31-1.89,1.93-1.49,3.86-2.92,5.67-4.47,2.31-2,4.08-4.53,5.62-7.27,.33-.57,.77-1.15,1.32-2,.22,1.09,.39,1.78,.55,2.46,.39,1.37,.77,2.81,1.27,4.18,.94,2.46,2.7,4.24,5.12,5.27,3.41,1.43,6.94,2,10.57,1.78,.33,0,.72-.11,1.05-.11,3.14-.46,7.44-5.44,7.77-8.31,.11-.97,.11-2.06-.22-2.98-1.21-3.72-2.48-7.45-3.86-11.11-1.05-2.81-2.31-5.5-3.58-8.25-.55-1.15-.55-2.12,.11-3.32,3.52-6.36,7.93-11.86,13.22-16.67,5.29-4.75,11.29-8.13,18.12-9.68,3.58-.8,7.16-1.2,10.74,0-.11,.17-.22,.52-.39,.57-6.72,1.83-12.39,5.67-17.35,10.6-4.3,4.24-7.38,9.28-9.2,15.18-1.1,3.55-1.49,7.16-1.54,10.83,.11,6.36,.22,12.77,.17,19.19h0Zm31.28,16.78c-.39,2.52-.66,5.1-.83,7.62-.61,11.8-1.21,23.6-1.76,35.4-.22,4.87-1.1,9.68-2.31,14.32-1.93,7.27-4.96,14.09-9.36,20.16-3.97,5.5-8.54,10.25-14.38,13.58-.61,.34-1.21,.69-1.82,1.03-.33,.17-.66,.34-.99,.52-.22,.11-.39,.17-.61,.29-.22,.11-.39,.17-.61,.29-.22,.11-.39,.17-.61,.29-.44,.17-.83,.4-1.27,.57-.33,.17-.72,.29-1.05,.46-.11,.06-.22,.06-.28,.11-.22,.11-.44,.17-.66,.23-.17,.06-.33,.11-.5,.17-.33,.11-.66,.23-.99,.34-.11,0-.17,.06-.28,.11-.28,.11-.61,.23-.88,.29-.33,.11-.66,.23-.99,.29-.17,.06-.39,.11-.55,.17-.06,0-.17,.06-.22,.06-.17,.06-.39,.11-.55,.17-.55,.17-1.05,.29-1.6,.4-.17,.06-.33,.06-.5,.11-.39,.11-.77,.17-1.1,.23-.39,.11-.72,.17-1.1,.23,.33-.34,.88-.86,1.6-1.49,1.05-.86,1.93-1.43,2.26-1.66,.06-.06,.11-.06,.11-.06,6.83-4.87,12.39-11.11,17.4-17.93,2.64-3.55,4.68-7.56,6.5-11.63,3.14-6.87,5.4-14.09,6.66-21.65,.61-3.55,.88-7.05,1.27-10.6,.44-4.18,.44-8.42,.17-12.6-.22-3.09-.61-6.19-1.43-9.22-1.71-6.3-4.79-11.57-9.8-15.58-.44-.4-.99-.63-1.54-.97-.99,.69-1.21,1.72-1.71,2.52-.5,.86-.94,1.78-1.38,2.63-.5,.97-.99,1.95-1.49,2.92-.44,.86-.88,1.78-1.38,2.63-.44,.8-.39,1.95-1.49,2.81,0-3.72,.06-7.16,.06-10.54,2.37-2.41,4.68-4.64,6.83-6.99,2.26-2.46,4.46-4.98,6.55-7.56,2.04-2.46,3.91-5.1,5.84-7.62,.22,.11,.33,.11,.33,.17,.83,3.67,2.09,7.16,3.58,10.6,1.71,4.01,3.69,7.9,6.22,11.46,.61,.97,.77,1.78,.61,2.92h0Z"/>
    <path class="cls-1" d="M380.47,94.22c2.26-2.29,4.57-4.58,6.77-6.93,1.1-1.15,2.15-2.35,2.75-3.95-.28-.29-.44-.52-.66-.63-3.8-1.95-6.72-4.98-9.42-8.31-3.25-3.95-5.4-8.53-7.1-13.4-.55-1.6-1.1-3.26-1.71-4.87-.17-.46-.55-.8-.99-1.43-3.47,3.95-6.99,7.5-10.8,10.77-3.86,3.32-7.82,6.47-11.84,9.85-1.76-1.15-3.52-2.18-5.12-3.44-1.6-1.26-3.08-2.75-4.41-4.3-1.38-1.66-2.59-3.44-3.69-5.33-1.05-1.78-1.82-3.72-2.75-5.79-.61,.52-1.1,.86-1.54,1.26-2.09,1.83-4.02,3.89-6.22,5.5-6.33,4.7-12.72,9.16-19.11,13.75-1.05,.74-2.31,1.32-3.03,2.52,0,.97,.66,1.55,1.1,2.18,.88,1.2,1.32,2.58,1.27,4.07v2.18c0,2.75,.39,11.74,.06,22.28-.17,6.07-.66,12.6-.77,13.75v.23s.72-2.18,2.15-6.24c0-.86,.06-1.72,.06-2.63v-29.38c0-1.66-.39-3.26-1.38-4.64-.28-.4-.44-.92-.66-1.49,.33-.23,.55-.46,.72-.57,4.35-3.09,8.76-6.19,13.11-9.28,4.46-3.26,9.09-6.3,13.05-10.31,.11-.11,.33-.11,.5-.17,.06,.06,.17,.06,.22,.17,.22,.4,.44,.8,.61,1.2,3.14,6.59,7.71,11.74,14.1,15.06,.22,.11,.33,.34,.5,.52-4.41,4.24-9.64,8.76-11.35,9.68-.39-.46-.77-.92-1.16-1.43-2.75-3.09-5.51-6.13-8.32-9.22-.5-.52-.99-1.03-1.6-1.43-.88-.69-1.54-.69-2.37,.06-1.6,1.32-3.03,2.81-4.19,4.58-.83,1.26-1.21,2.58-1.21,4.12,.06,3.32,0,6.59-.06,9.91-.11,10.08-.17,20.16-.28,30.24,0,1.66,.11,3.26,.72,4.87,2.42,6.07,8.1,7.73,12.12,7.33,.17,0,.33-.06,.5-.06s.28-.06,.44-.06c4.46-.8,7.44-4.18,8.81-5.9,.11-.11,.17-.23,.28-.34,.33-.4,.55-.74,.72-.97,.11-.11,.28-.34,.44-.57v-.06c.33-.63,.28-1.26,.28-1.49-.61,.74-1.43,1.72-2.53,2.75l-.06,.06c-.33,.29-1.27,1.09-2.26,1.89-.11,.06-.17,.17-.28,.23-.17,.11-.33,.29-.5,.4-2.2,1.78-4.68,2.86-7.55,2.69-5.62-.4-9.75-4.7-9.75-10.54,.06-13.17,.11-26.41,.17-39.58,0-.57-.06-1.15,.11-1.6,.99-2.81,2.86-4.93,5.34-6.7,2.64,2.58,5.18,5.16,7.49,7.9,1.16,1.37,2.31,2.75,3.52,4.12,.94,1.03,1.65,1.03,2.75,.11,.55-.46,1.05-1.03,1.54-1.49,1.38-1.26,2.7-2.58,4.35-3.49,.55,.17,1.1,.29,1.6,.46,1.27,.4,1.93,1.2,1.93,2.58,0,.92,.11,1.83,.11,2.75,0,6.76-.06,13.58-.11,20.33-.06,3.78-.11,7.5-.17,11.28-.11,4.7-.72,9.28-3.03,13.46-.28,.46-.39,.97-.61,1.6,.55,.23,.88,.46,1.27,.57,.99,.34,2.04,.63,3.03,.97,4.13,1.55,7.71,4.01,11.02,6.93,3.03,2.75,5.95,5.73,8.87,8.59,.55,.57,.99,1.26,1.98,1.43,1.1-.52,1.87-1.55,2.7-2.46,2.75-3.09,5.45-6.19,8.15-9.34,1.76-2.06,3.47-4.12,4.68-6.59,.06-.11,.11-.23,.17-.4,.88-1.89,1.05-3.44,1.1-3.78,.22-1.32,.22-2.35,.22-3.89s-.06-2.69-.11-3.61c-.55,.63-1.32,1.55-2.31,2.69-.83,.97-1.21,1.37-1.38,1.6-.11,.11-.17,.17-.17,.23-1.82,2.29-4.02,4.07-6.83,5.04-6.17,2.06-11.35-.97-13.27-6.53-.55-1.55-.88-3.15-1.05-4.81-.44-3.84,.55-7.27,3.25-10.02,5.78-5.67,11.46-11.46,17.07-17.3h0Zm-21.37,22c-.55,3.72-.5,7.45,.94,11.05,2.2,5.67,7.66,9.28,14.71,7.22,.06,0,.11,0,.11-.06,.06,0,.11,0,.17-.06,.06,0,.11-.06,.17-.06s.11-.06,.17-.06,.11-.06,.17-.06c.11,0,.17-.06,.28-.11q.06,0,.11-.06t.11-.06c.11-.06,.17-.06,.28-.11,.17-.06,.33-.11,.5-.23,.11-.06,.17-.11,.28-.11,.17-.11,.39-.17,.55-.29,.28-.11,.55-.29,.83-.46,.06,0,.06-.06,.11-.06,.11-.06,.22-.11,.28-.23,0,0,.06,0,.06-.06,.17-.11,.28-.17,.44-.29s.28-.23,.44-.34c.22-.17,.44-.4,.66-.57,2.04-1.83,3.19-3.95,3.69-5.1,.17,.52,.33,1.2,.33,2.12,.06,1.43-.33,2.58-.77,3.61-.94,2.29-2.15,4.47-4.13,6.87-.22,.29-.5,.57-.77,.86-3.14,3.55-6.22,7.22-9.36,10.83-.33,.4-.77,.69-1.27,1.09-.5-.46-.94-.74-1.27-1.15-2.81-3.21-5.84-6.13-9.09-8.82-3.69-3.04-7.71-5.5-12.17-7.1-.5-.17-.94-.34-1.54-.52,.39-.97,.72-1.83,1.1-2.63,.83-1.95,1.54-3.89,1.71-6.01,.22-2.75,.5-5.5,.5-8.25,.11-9.97,.11-19.99,.17-29.96,0-.8,0-1.66-.06-2.46-.11-1.03-.55-1.89-1.54-2.41-.61-.29-1.21-.63-1.93-1.03,1.54-2,3.3-3.49,5.07-4.98,2.37-2.06,4.85-3.95,7.27-5.9,4.41-3.67,8.7-7.45,12.56-11.74,.28-.29,.66-.46,1.1-.8,.28,.74,.5,1.37,.72,1.95,1.27,3.72,2.64,7.33,4.57,10.77,2.86,4.98,6.5,9.11,11.18,12.26,.55,.4,1.1,.86,1.76,1.37-1.32,1.43-2.53,2.75-3.8,4.01-6.22,6.3-12.5,12.66-18.73,18.96-1.43,1.49-2.86,2.98-4.19,4.58-1.21,1.37-2.2,2.86-2.42,4.58h0Z"/>
    <path class="cls-2" d="M361.47,111.69c1.32-1.6,2.75-3.09,4.19-4.58,6.22-6.36,12.5-12.66,18.73-18.96,1.27-1.26,2.48-2.58,3.8-4.01-.72-.57-1.21-1.03-1.76-1.37-4.68-3.15-8.32-7.27-11.18-12.26-1.93-3.44-3.3-7.05-4.57-10.77-.22-.57-.44-1.2-.72-1.95-.44,.29-.83,.46-1.1,.8-3.86,4.3-8.15,8.08-12.56,11.74-2.42,2-4.9,3.89-7.27,5.9-1.76,1.49-3.52,2.98-5.07,4.98,.77,.4,1.32,.74,1.93,1.03,.99,.52,1.43,1.32,1.54,2.41,.06,.8,.11,1.66,.06,2.46-.06,9.97-.06,19.99-.17,29.96,0,2.75-.28,5.5-.5,8.25-.17,2.12-.88,4.12-1.71,6.01-.33,.8-.66,1.66-1.1,2.63,.61,.23,1.1,.34,1.54,.52,4.46,1.6,8.48,4.01,12.17,7.1,3.25,2.69,6.28,5.61,9.09,8.82,.33,.4,.77,.69,1.27,1.15,.5-.4,.94-.69,1.27-1.09,3.14-3.61,6.22-7.27,9.36-10.83,.28-.29,.5-.57,.77-.86,1.71-2.12,3.08-4.41,4.13-6.87,.39-.97,.77-2.12,.77-3.61,0-.86-.17-1.6-.33-2.12-.55,1.2-1.65,3.26-3.69,5.1-.22,.17-.44,.4-.66,.57-.11,.11-.28,.23-.44,.34-.11,.11-.28,.23-.44,.29,0,0-.06,0-.06,.06-.11,.06-.22,.11-.28,.23-.06,0-.06,.06-.11,.06-.28,.17-.55,.34-.83,.46-.17,.11-.39,.17-.55,.29-.11,.06-.17,.11-.28,.11-.17,.06-.33,.11-.5,.23-.11,.06-.17,.06-.28,.11-.06,0-.06,.06-.11,.06s-.06,0-.11,.06c-.11,0-.17,.06-.28,.11-.06,0-.11,.06-.17,.06s-.11,.06-.17,.06-.11,.06-.17,.06-.11,.06-.17,.06-.11,0-.11,.06c-7.05,2.06-12.5-1.55-14.71-7.22-1.43-3.61-1.49-7.33-.94-11.05,.28-1.78,1.27-3.26,2.42-4.58h0Zm-2.92-7.45v-30.7c0-.11,.17-.29,.44-.57,.33,.11,.77,.17,1.1,.4,5.4,3.67,9.75,8.25,12.39,14.55,1.27,2.98,.77,5.27-1.43,7.33-1.65,1.55-3.25,3.04-4.96,4.53-1.71,1.49-3.41,2.86-5.12,4.3-.61,.52-1.21,.97-2.09,1.03-.17-.4-.33-.63-.33-.86h0Z"/>
    <path class="cls-1" d="M340.81,132.43v-.11c-.11-1.55-.28-3.72-.72-6.47-.06,.4-.17,.92-.28,1.55,0,.11-.06,.23-.06,.34-.28,1.72-.22,2.41-.44,3.44-.22,1.32-.61,2.23-1.05,3.26-.83,1.95-1.82,3.44-2.75,4.75-1.76,2.41-3.41,4.01-5.78,6.42-1.98,2-3.75,4.3-6.17,6.13-1.1-1.26-1.93-2.52-2.86-3.72-1.43-1.83-2.81-3.78-4.41-5.44-3.41-3.49-7.49-6.07-11.9-8.08-.88-.4-1.76-.8-2.75-1.26,.11-.8,.11-1.55,.28-2.23,.17-.92,.44-1.78,.66-2.69,.06-.23,.11-.46,.17-.69s.11-.46,.11-.63c.06-.23,.06-.4,.11-.63,.06-.23,.06-.46,.11-.69,0-.23,.06-.46,.06-.63s.06-.4,.06-.57v-.11c.22-3.78-.55-7.45-2.26-11-1.49-3.09-3.58-5.61-6.06-7.9-4.13-3.72-8.92-6.53-13.66-9.34-2.75-1.6-5.45-3.38-8.1-5.16-1.38-.86-2.53-2-3.3-3.49-1.27-2.41-1.1-4.87,.61-6.87,1.76-2.06,3.69-3.89,5.89-5.73,2.09,1.55,4.19,3.04,6.28,4.53,1.65,1.2,3.3,2.41,5.01,3.61,.72,.52,1.49,1.03,2.42,.86,1.21-.86,.39-2.29,1.05-3.61,1.05-.92,2.26-2.06,3.58-3.15,3.47-2.86,6.94-5.67,10.35-8.48,.55-.46,.94-1.03,1.49-1.55-1.27-.86-1.43-2.23-2.04-3.32-.44-.8-.94-1.03-1.76-.63-.83,.34-1.6,.8-2.37,1.2-2.15,1.09-4.3,.97-6.33-.29-1.16-.69-2.2-1.49-3.25-2.35-2.42-2.12-4.52-4.64-6.5-7.22-.61-.74-1.21-1.55-2.04-2.58-4.79,5.56-9.58,10.54-14.43,15.41-4.85,4.93-9.8,9.68-14.98,13.98-.17,2,.28,3.67,.99,5.27,1.93,4.3,4.79,7.9,7.99,11.17,4.24,4.3,8.92,8.02,13.66,11.74,2.81,2.23,5.4,4.75,7.6,7.62,.94,1.2,1.71,2.58,2.31,4.01,.99,2.29,.88,4.64-.17,6.93-.99,2.12-2.48,3.72-4.3,5.1-.72,.57-1.49,.52-2.26,.11-.44-.29-.94-.57-1.32-.92-1.43-1.37-2.92-2.63-4.19-4.18-4.08-4.98-7.77-10.2-10.41-16.15-.06-.11-.28-.11-.55-.23-.17,.23-.44,.46-.61,.8-2.31,4.64-5.07,8.99-8.1,13.17-1.54,2.12-3.03,4.3-4.52,6.42-.66,.97-1.32,1.95-.83,3.26,.39,0,.72,.06,1.1,.06,2.04,0,4.02-.11,6.06,0,2.97,.11,5.67,1.26,8.15,2.92,3.58,2.35,6.33,5.56,8.54,9.22,1.76,2.98,3.41,6.01,4.02,9.51,.17,.92,.94,1.15,1.54,.52,.39-.4,.77-.74,1.05-1.2,.99-1.43,1.98-2.81,2.92-4.24,3.69-5.79,7.99-10.94,13.16-15.29,1.71-1.43,3.58-2.69,4.85-4.58,.06-.11,.28-.06,.55-.11,.06,.74,.11,1.55,.22,2.18,.28,.23,.44,.4,.55,.46,.33,.17,.66,.29,.99,.4,7.05,2.81,13.11,7.05,17.51,13.63,.77,1.15,1.54,2.23,2.37,3.32,.55,.69,1.05,1.49,2.09,1.78,.28-.23,.72-.4,.99-.69,.72-.74,1.38-1.43,1.98-2,4.3-4.41,5.95-6.59,11.13-12.26,.44-.46,.99-1.09,1.54-1.89l.06-.06c.66-1.03,1.27-2.29,1.27-3.84h0c.11-.46,.11-.52,.06-.8h0Zm-42.68-.92c-1.87,1.83-3.8,3.55-5.78,5.21-4.52,3.84-8.32,8.42-11.51,13.52-.99,1.6-2.09,3.15-3.36,4.98-1.1-2.41-1.93-4.41-2.86-6.42-2.31-4.75-5.67-8.53-9.91-11.57-2.97-2.18-6.28-3.32-9.86-3.49-1.54-.11-3.14,0-4.79,0,.06-.46,0-.74,.11-.92,4.02-5.33,7.88-10.77,11.13-16.67,.22-.4,.5-.69,.94-1.2,.39,.52,.66,.86,.83,1.2,2.53,4.98,5.89,9.34,9.42,13.58,1.43,1.72,3.14,3.21,4.96,4.53,1.6,1.15,3.08,1.03,4.63-.17,1.93-1.55,3.58-3.32,4.57-5.61,1.27-2.92,1.21-5.84-.06-8.76-1.1-2.52-2.86-4.58-4.68-6.59-2.42-2.63-5.23-4.93-8.04-7.1-4.35-3.32-8.43-6.87-12.23-10.94-2.37-2.52-4.35-5.27-5.89-8.36-.44-.8-.77-1.66-1.05-2.52-.55-1.72-.44-2.06,.99-3.26,5.95-5.04,11.57-10.48,16.91-16.15,3.03-3.21,5.95-6.47,8.98-9.74,.17-.17,.44-.29,.77-.52,.83,.97,1.6,1.95,2.37,2.92,1.93,2.41,4.08,4.58,6.44,6.47,2.09,1.66,4.41,2.69,7.1,2.29,.77-.11,1.54-.34,2.31-.57,.83-.29,1.65-.63,2.59-1.03,.39,.8,.72,1.55,1.1,2.35-.28,.4-.5,.8-.83,1.03-3.8,3.09-7.6,6.19-11.46,9.28-.5,.4-.99,.8-1.43,1.2-.94,.8-1.65,1.72-1.21,3.32-.72-.34-1.21-.52-1.6-.8-3.19-2.29-6.33-4.64-9.47-6.99-.28-.23-.55-.46-.88-.63-.5-.29-.99-.34-1.49,0-.55,.34-1.05,.69-1.49,1.15-1.49,1.43-2.97,2.86-4.41,4.3-3.14,3.15-3.19,8.31,.5,11.63,1.82,1.6,3.8,2.98,5.78,4.3,4.3,2.75,8.65,5.27,12.94,8.02,3.52,2.29,6.66,5.04,9.09,8.65,1.65,2.46,2.86,5.1,3.36,8.02,.72,4.58-.11,8.76-3.52,12.09h0Z"/>
    <path class="cls-1" d="M410.93,137.75c-1.38,3.38-8.59,12.89-11.24,14.89-1.65-1.43-2.86-3.38-4.46-4.87-1.6-1.55-3.25-3.09-4.85-4.7-1.6-1.55-3.19-3.15-4.85-4.7,.17-1.55,.88-2.81,1.54-4.07,.55-1.03,1.16-2.06,1.71-3.09,.88-1.72,1.49-3.49,1.6-5.5,.17-3.21,.5-6.42,.5-9.62,.06-10.71-.06-21.42,.06-32.19,.06-5.04-2.09-8.76-5.73-11.8-.83-.69-1.76-1.2-2.37-2.29,1.16-1.83,3.03-2.81,4.46-4.18,1.43-1.37,2.86-2.69,4.24-4.12,1.43-1.49,2.75-3.04,4.3-4.75,.44,.52,.77,.86,1.05,1.26,2.04,3.55,4.3,6.93,7.44,9.57,.94,.8,1.93,1.6,2.92,2.35,.28,.23,.61,.29,1.1,.52,2.81-2.46,5.84-4.64,8.48-7.27,2.64-2.58,5.12-5.21,7.82-7.9,.28,.4,.61,.69,.77,1.09,3.58,7.1,8.37,13.12,14.82,17.58,.22,.11,.39,.4,.55,.57,.06,.06,.06,.17,.11,.4-.5,.86-1.32,1.49-2.09,2.29-3.25,3.32-3.3,3.32-3.3,8.08-.11,13.17-.22,26.41-.33,39.58,0,1.2-.11,2.41-.11,3.55,0,.57-.06,1.09,0,1.66,.22,2.86,1.32,5.1,4.08,6.19,.88,.34,1.76,.74,2.64,1.15-.06,1.26-.55,2.12-1.1,2.86-3.25,4.58-6.61,9.05-10.19,13.29-.17,.17-.44,.29-.66,.46-.99-.11-1.32-.92-1.76-1.55-1.6-2.29-3.14-4.64-4.68-6.99-1.6-2.52-3.19-5.04-4.74-7.62-.22-.4-.44-.8-.66-1.2-.88-1.26-.66-2.35,.28-3.44,.44-.46,.77-.97,1.16-1.49,2.09-2.58,2.97-5.5,2.97-8.88,0-12.72-.06-25.49,.11-38.2,.06-5.04-2.53-7.73-6.33-9.85-.94-.52-1.82-.52-2.75,0-.44,.29-.99,.46-1.38,.8-2.09,1.66-4.13,3.38-6.22,5.04-1.05,.86-1.49,2-1.54,3.32,0,1.49-.06,2.92-.06,4.41,0,9.74-.11,19.42-.06,29.15,0,3.32,.22,6.59,.5,9.85,.28,2.75,1.1,5.38,2.75,7.62,.66,.86,1.32,1.72,2.42,2,.39,.23,.66,.46,1.1,.74h0Zm-10.96,12.49c3.64-3.72,7.93-9.45,8.7-11.8-.17-.17-.28-.46-.5-.57-1.98-1.15-3.03-2.98-3.8-5.1-.88-2.41-1.32-4.93-1.38-7.5-.39-13.75-.28-27.49-.11-41.24,0-.57,0-1.15,.11-1.66,.17-.57,.33-1.32,.77-1.72,2.7-2.63,5.51-5.1,8.81-6.93,.22-.11,.5-.23,.72-.34,.99-.52,1.98-.46,3.03-.06,4.85,1.83,7.66,5.9,7.71,11.28v.8c0,8.88,0,17.76-.11,26.63-.06,4.41-.28,8.76-.33,13.17-.06,3.21-1.27,5.84-3.36,8.13-.44,.52-.83,1.15-1.27,1.72,.55,1.09,.99,2.12,1.54,2.98,2.7,4.18,5.4,8.36,8.1,12.54,.28,.4,.66,.74,.99,1.15,2.31-2.12,8.92-10.88,10.19-13.52-.83-.46-1.71-.92-2.53-1.37-2.09-1.2-3.3-2.98-3.47-5.44-.06-1.09-.11-2.18-.11-3.32,.06-3.09,.17-6.24,.17-9.34,.06-8.99,.06-17.93,.06-26.92v-9.05c0-1.66,.44-3.04,1.54-4.24,.66-.74,1.38-1.43,2.04-2.18,.39-.46,1.1-.63,1.1-1.6-.28-.23-.61-.52-.94-.8-1.6-1.43-3.3-2.75-4.85-4.24-2.86-2.75-5.07-6.07-7.16-9.45-.44-.74-.77-1.6-1.6-2.12-1.71,1.78-3.19,3.55-4.9,5.16-1.76,1.66-3.58,3.26-5.45,4.75-1.76,1.43-3.41,3.15-5.56,4.18-5.51-2.86-9.31-7.45-12.39-12.89-1.76,1.89-3.41,3.72-5.12,5.38-1.76,1.72-3.75,3.21-5.45,5.04,1.38,1.43,2.64,2.69,3.8,4.07,2.26,2.58,3.25,5.56,3.25,9.05-.06,10.83,0,21.65-.06,32.42,0,2.75-.17,5.5-.22,8.25,0,4.07-1.16,7.73-3.41,11.05-.61,.86-1.21,1.78-1.43,2.98,4.35,4.24,8.59,8.36,12.89,12.66h0Z"/>
    <path class="cls-1" d="M77.71,132.54c-2.04-1.66-2.64-4.01-2.92-6.53-.11-.8-.06-1.66-.06-2.46v-26.63c0-8.71,.06-17.41-.06-26.12-.06-2.98-.28-6.01-.77-8.99-.66-3.89-2.26-7.5-4.19-10.88-1.49-2.58-3.03-5.16-4.52-7.73-2.81-4.87-4.74-10.02-5.4-15.64-.28-2.06-.33-4.18-.55-6.3-.06-.63,.06-1.32-.72-1.72-.94,.23-1.6,1.03-2.2,1.72-5.23,5.79-11.4,10.31-17.96,14.32-4.02,2.46-8.1,4.81-12.12,7.33-5.51,3.44-10.19,7.79-13.88,13.35-1.98,2.98-3.36,6.24-4.02,9.79-.33,1.78-.22,3.55,.17,5.27,.28,0,.39,.06,.44,0,.39-.52,.77-.97,1.1-1.49,2.42-4.53,5.56-8.48,9.25-11.91,5.18-4.7,11.02-8.19,17.46-10.54,1.65-.63,3.36-1.03,5.12-1.32,1.49-.29,2.81,.06,4.08,.8,4.52,2.81,7.22,6.99,7.88,12.37,.44,3.15,.22,6.42,.33,9.62,.06,1.15-.44,1.95-1.32,2.52-.39,.23-.77,.46-1.1,.69-3.41,2.29-6.88,4.41-10.24,6.82-5.56,3.95-10.24,8.94-13.93,14.84-4.68,7.56-7.1,15.92-7.88,24.8-.5,5.79-.28,11.51,.5,17.3,1.1,7.79,3.86,14.84,8.43,21.08,2.75,3.78,6.17,6.76,10.41,8.71,3.64,1.6,7.33,1.78,11.07,.4,3.52-1.26,5.62-3.84,6.83-7.27h.06c0-.17,.06-.34,.11-.57h0c.11-.34,.28-.8,.55-1.26,.28-.52,.61-.86,.77-1.03l.06-.06c.55-.57,1.05-1.03,1.43-1.49,.06-.06,.11-.11,.17-.17,.22-.17,.39-.4,.55-.57s.33-.29,.44-.46c1.05-1.03,1.76-1.78,2.26-2.23,.22-.17,.39-.34,.5-.46,.06-.06,.11-.11,.17-.17,.11-.11,.17-.17,.22-.23,.06-.06,.11-.06,.11-.06,2.7-2.41,5.51-4.58,8.21-6.87,2.81-2.41,5.29-5.1,6.61-8.82-.44-.69-.88-1.26-1.43-1.72h0Zm-6.44,9.45c-2.04,1.72-3.36,2.75-5.07,4.24-.28,.23-.55,.46-.83,.69-.17,.11-.28,.23-.44,.4-.11,.11-.28,.23-.44,.34-2.2,1.83-5.07,4.58-8.21,8.31-.22,.74-.44,1.49-.66,2.29h0c-.28,.4-.5,.86-.72,1.26-2.26,4.3-5.84,5.84-10.35,5.67-3.03-.11-5.67-1.37-8.1-3.04-4.41-2.98-7.55-7.1-9.97-11.91-2.97-5.9-4.74-12.2-5.29-18.84-.77-9.34,.06-18.44,3.19-27.32,3.41-9.68,9.25-17.41,17.24-23.43,2.75-2.12,5.73-3.89,8.59-5.84,1.49-.97,2.97-2,4.41-2.98,.61-.4,.99-1.03,.99-1.83-.06-3.84,.17-7.68-.33-11.51-.66-5.38-3.41-9.28-7.49-12.43-2.09-1.6-4.41-2.23-6.99-1.55-1.21,.29-2.37,.63-3.58,1.03-3.03,1.03-5.89,2.35-8.76,3.89-6.99,3.78-12.89,8.88-17.35,15.75-.28,.4-.39,1.03-1.21,1.15,.06-.46-.06-.86,.06-1.26,.66-2.29,1.54-4.47,2.7-6.53,2.48-4.18,5.67-7.73,9.36-10.71,3.91-3.15,8.26-5.61,12.56-8.13,4.85-2.81,9.53-5.9,14.04-9.28,3.03-2.23,5.84-4.7,8.32-7.62,.11-.11,.33-.06,.61-.11,.06,.34,.11,.69,.17,1.03,.44,7.45,2.53,14.38,6.28,20.73,1.76,2.98,3.47,5.96,5.18,8.94,2.48,4.47,3.69,9.34,3.86,14.43,.28,6.47,.44,13,.44,19.47,.06,12.2,0,24.4,0,36.54,0,1.26,.06,2.58,.11,3.84,.22,2.29,1.05,4.24,2.64,5.79,.39,.34,.66,.74,.99,1.09-1.43,3.09-3.52,5.44-5.95,7.45h0Z"/>
    <path class="cls-1" d="M489.63,82.88c-.88,1.83-2.04,2.92-3.14,4.12-3.97,4.41-8.21,8.53-12.5,12.6-3.97,3.78-7.88,7.56-11.79,11.4-.77,.74-1.49,1.6-2.04,2.52-.5,.8-1.05,1.78-1.21,2.75-.77,4.98-.55,9.85,1.87,14.43,.44,.86,.99,1.72,1.65,2.46,2.26,2.81,5.4,3.89,9.31,2.41,1.32-.52,2.53-1.32,3.64-2.18,4.79-3.44,9.03-7.62,12.78-12.26,.72-.92,1.49-1.83,2.31-2.63,.28-.29,.77-.57,1.16-.46,.55,.11,.72,.74,.66,1.32-.11,.8-.11,1.66-.44,2.41-.72,1.95-1.43,3.95-2.42,5.79-2.2,4.3-4.63,8.42-6.88,12.66-2.86,5.33-5.07,10.83-6.28,16.78-.55,2.58-1.27,5.16-1.98,7.68-.94,3.15-2.15,6.19-3.75,9.05-1.76,3.21-4.13,5.96-6.99,8.13-3.52,2.69-7.6,3.72-11.95,3.55-.39,0-.77-.23-1.54-.46,.55-.46,.77-.69,1.05-.8,6.66-2.46,10.85-7.62,13.88-13.98,1.71-3.61,2.09-7.56,1.38-11.57-.55-3.15-2.09-5.84-4.3-8.02-2.59-2.58-5.51-4.58-8.65-6.24-2.64-1.43-5.4-2.69-8.15-3.89-2.15-.97-2.48-1.83-1.49-4.01,.06-.06,.06-.17,.11-.23,2.09-3.49,2.64-7.27,2.59-11.28-.11-11.74-.06-23.48-.06-35.17,0-.8-.06-1.66-.06-2.46,.06-3.09-.5-6.01-2.2-8.65-.33-.52-.5-1.15-.72-1.6,.17-.97,.83-1.32,1.43-1.72,6.11-4.01,11.9-8.53,17.35-13.4,2.2-1.95,4.24-4.18,6.33-6.24,.55-.57,1.16-1.09,1.82-1.6,.17-.17,.5-.17,.66-.23,.88,.4,.83,1.2,.99,1.89,.55,2.58,1.16,5.16,2.15,7.62,2.86,6.99,6.88,12.94,12.89,17.36,.83,.63,1.6,1.37,2.53,2.18h0Zm-44.28-5.79c.11,.52,.11,.69,.22,.86,1.87,3.04,2.31,6.42,2.31,9.97-.11,13-.11,26,0,39.01,0,3.21-.66,6.13-2.2,8.94-.44,.74-.77,1.6-1.21,2.46,.44,.23,.72,.46,.99,.57,2.59,1.2,5.18,2.29,7.71,3.61,3.52,1.83,6.83,4.12,9.8,6.87,2.64,2.46,4.35,5.56,4.9,9.16,.61,4.07,.17,8.02-1.43,11.86-1.16,2.81-2.75,5.33-4.57,7.68-1.32,1.72-2.86,3.26-4.68,4.41-.44,.29-.83,.63-1.6,1.26,1.71-.11,2.81-.57,3.91-1.15,4.41-2.29,7.71-5.73,10.02-10.2,1.98-3.72,3.25-7.73,4.3-11.74,.94-3.55,1.71-7.1,2.86-10.6,2.04-6.19,4.96-11.91,8.32-17.41,1.98-3.26,3.75-6.64,5.23-10.2,.17-.46,.33-.97,.44-1.49-.66,.29-1.1,.69-1.49,1.15-3.75,5.1-8.32,9.16-13.33,12.83-1.43,1.03-2.97,1.95-4.68,2.46-3.52,1.03-6.66,.23-9.2-2.52-1.1-1.15-1.98-2.58-2.75-4.01-2.31-4.24-2.48-8.88-2.04-13.63,.28-2.63,1.38-4.87,3.25-6.7,.33-.29,.61-.69,.94-.97,5.23-5.04,10.46-10.08,15.7-15.12,3.3-3.15,6.61-6.36,9.47-9.91,.33-.4,.61-.86,.94-1.32-.39-.34-.61-.63-.88-.86-8.48-6.3-13.71-14.84-16.03-25.32-.06-.23-.28-.4-.55-.69-7.38,8.08-15.86,14.55-24.67,20.73h0Z"/>
    <path class="cls-1" d="M190.84,163.99c-.99,.63-1.38,1.03-1.82,1.15-1.76,.57-3.52,1.2-5.29,1.66-3.3,.86-6.66,1.78-9.8,3.21-1.71,.74-3.36,1.66-4.9,2.69-2.31,1.6-3.58,3.95-3.36,6.99,.11,1.72,.88,3.15,1.93,4.47,1.49,1.83,3.25,3.38,5.12,4.7,.5,.34,.99,.69,1.43,1.03-.06,.63-.44,.63-.77,.63-2.31-.06-4.52-.46-6.77-1.03-5.23-1.26-10.46-2.58-15.7-3.67-11.29-2.41-22.64-3.15-34.15-2.81-4.96,.17-9.86,.46-14.76,1.2-10.85,1.6-21.43,4.18-31.28,9.45-3.58,1.95-6.99,4.18-9.97,7.16-3.25,3.21-5.34,7.05-6.06,11.63-.55,3.15-.5,6.42,.72,9.45,.22,.57,.44,1.2,.5,1.83,0,.23-.39,.57-.66,.74-.11,.06-.55-.11-.61-.34-.44-.92-.83-1.83-1.16-2.75-.88-2.69-1.6-5.44-1.71-8.31-.22-4.81,1.27-9.22,3.58-13.29,2.15-3.72,4.96-6.87,8.26-9.57,8.54-6.99,18.23-11.74,28.53-15.18,7.49-2.46,15.09-4.24,22.8-5.79,7.71-1.55,15.48-2.63,23.24-3.49,6.83-.74,13.66-1.55,20.49-2.12,8.98-.69,17.96-.92,26.93-.69,1.54,.11,3.08,.34,5.23,1.03h0Zm-5.4,.52c-.39-.06-.83-.17-1.21-.11-2.09,.06-4.24,.11-6.33,.17-4.52,.11-8.98,.11-13.49,.4-6.06,.4-12.12,.92-18.18,1.55-5.89,.57-11.73,1.26-17.57,2.06-7.71,1.03-15.31,2.58-22.86,4.35-9.14,2.12-18.07,4.87-26.49,9.16-6.28,3.21-12.17,6.93-17.4,11.86-1.93,1.78-3.64,3.78-5.01,6.01-1.93,3.09-3.25,6.47-3.8,10.14-.06,.34,0,.74,.55,.63,.17-.52,.33-1.03,.44-1.55,.94-3.95,3.14-7.05,6-9.79,3.97-3.72,8.48-6.53,13.33-8.76,9.69-4.41,19.83-6.87,30.29-8.13,13.33-1.6,26.71-1.55,40.04,.57,7.6,1.2,15.04,2.86,22.47,4.93,.83,.23,1.71,.46,2.59,.63,.06,0,.17-.06,.39-.23-.22-.29-.44-.52-.61-.74-.94-1.09-2.09-2-2.86-3.21-1.93-2.92-2.31-6.07-.66-9.34,.72-1.37,1.65-2.58,2.92-3.49,2.15-1.6,4.57-2.81,7.05-3.67,3.41-1.2,6.83-2.41,10.41-3.44h0Z"/>
    <path class="cls-1" d="M122.87,136.95c-.33-1.15,0-1.6,.72-1.72,.5-.11,.99,0,1.6,0-.5-1.26-1.05-2.29-1.32-3.44-1.16-5.38-1.05-10.71,.83-15.92,2.48-7.16,6.61-13.29,11.62-18.79,4.02-4.41,8.59-8.13,13.44-11.51,.28-.17,.55-.46,.83-.69,.06-.06,.06-.17,.17-.4-.17-1.2-.83-2.23-1.6-3.26-3.41-4.35-7.82-6.64-13.22-6.99-.77-.06-1.54-.17-2.59-.29,.28-.63,.39-1.03,.66-1.32,3.58-3.78,6.44-8.19,9.53-12.49,.61-.86,1.05-1.89,1.6-2.86,.28-.46,.61-.86,.99-1.37,.55,.34,1.05,.57,1.43,.86,3.19,2.58,6.44,5.16,9.53,7.85,1.93,1.72,3.8,3.55,5.56,5.44,1.71,1.89,2.81,4.18,3.69,6.59,.44,1.26,.28,2.35-.77,3.15-1.54,1.2-1.98,2.81-1.98,4.81,.06,13.75,0,27.49,0,41.24,0,5.56,2.37,9.28,7.44,11.51,.17,.97-.44,1.72-.94,2.41-2.7,3.84-5.56,7.56-8.76,10.94-.39,.4-.83,.69-1.16,.92-.94-.17-1.16-.86-1.49-1.49-2.26-3.89-4.57-7.79-6.88-11.68-.11-.23-.33-.4-.55-.63-.94,.17-1.49,.97-2.09,1.55-3.52,3.44-7.05,6.93-10.52,10.37-.61,.63-1.16,1.37-2.26,1.6-.28-.34-.66-.69-.94-1.15-.99-1.72-1.93-3.49-2.86-5.21-1.6-2.81-3.8-5.04-6-7.22-1.27-.97-2.42-.97-3.69-.8h0Zm13.33-64.44c1.32,.29,2.26,.4,3.19,.63,4.46,1.15,8.37,3.32,11.07,7.39,.66,1.03,1.1,2.29,1.6,3.44,.33,.74,.06,1.49-.55,1.95-1.16,.97-2.37,1.95-3.58,2.81-7.44,5.33-13.6,11.91-18.29,19.88-2.09,3.55-3.8,7.22-4.52,11.34-.39,2.35-.99,4.7-.66,7.1,.28,1.89,.61,3.78,.88,5.67,.22,1.72,.99,3.09,2.26,4.18,3.47,2.81,5.84,6.53,7.88,10.54,.28,.57,.55,1.09,.94,1.83,.66-.57,1.21-1.03,1.71-1.49,2.81-2.75,5.62-5.56,8.43-8.31,.99-.92,1.98-1.78,3.03-2.63,.61-.52,1.32-.92,2.31-.52,1.32,2,2.75,4.07,4.08,6.24,1.38,2.18,2.64,4.47,3.97,6.7,1.98-1.43,4.52-4.35,7.99-9.22,.33-.46,.55-1.09,.83-1.72-.39-.34-.61-.57-.88-.8-3.97-2.46-5.84-6.19-5.95-10.94v-1.37c0-10.37,0-20.68,.06-31.05,0-3.55,.11-7.16,.06-10.71,0-1.72,.33-3.26,1.71-4.41,.11-.11,.28-.23,.39-.4,.83-.92,.94-1.32,.33-2.41-1.54-2.81-3.08-5.56-5.56-7.62-3.75-3.15-7.49-6.36-11.29-9.51-.39-.34-.83-.57-1.38-.92-2.7,5.27-6.33,9.62-10.02,14.32h0Z"/>
    <path class="cls-1" d="M80.9,135.75c.28-.52,.44-1.03,.77-1.49,1.71-2.58,2.26-5.5,2.26-8.59,0-7.79,.06-15.58,.06-23.37,0-4.12,0-8.25-.06-12.37v-1.37c-.11-2.86-.44-5.61-2.04-8.13-.83-1.26-.66-1.89,.5-2.81,1.54-1.26,3.14-2.41,4.68-3.55,7.22-5.44,14.27-11.05,20.27-17.99,.44-.52,1.05-.97,1.49-1.32,1.05,.11,1.32,.8,1.6,1.49,.5,1.26,.94,2.58,1.32,3.89,2.26,8.19,6.88,14.72,13.22,20.05,.61,.52,1.21,1.03,1.76,1.6,.28,.23,.44,.57,.66,.92-.11,1.2-.72,2.06-1.49,2.81-2.81,2.86-5.67,5.79-8.48,8.65-.17,.17-.39,.34-.61,.57-5.4,5.27-10.74,10.6-16.08,15.87-1.65,1.6-2.97,3.49-3.25,5.84-.44,3.78-.11,7.5,1.76,10.88,.66,1.2,1.49,2.29,2.59,3.04,3.47,2.46,7.1,2.58,10.74,.74,1.32-.63,2.53-1.66,3.69-2.58,1.27-.97,2.42-2,3.75-3.15,.66,1.09,.99,2.12,1.05,3.21,.06,2.35-.61,4.58-1.93,6.42-3.75,5.1-7.71,10.02-12.01,14.61-.33,.34-.61,.69-.94,.97-1.21,1.15-1.98,1.2-3.25,.11-1.76-1.55-3.52-3.09-5.18-4.7-4.02-4.01-8.65-6.87-13.93-8.65-.83-.29-1.65-.57-2.48-.92-.06-.11-.17-.29-.44-.69h0Zm38.44-7.22c-1.43,1.03-2.75,1.95-4.02,2.86-2.37,1.72-4.9,2.63-7.93,2.46-4.9-.29-8.26-2.75-10.24-7.33-1.05-2.41-1.32-4.93-1.38-7.5-.06-3.55,.99-6.64,3.47-9.16,5.29-5.27,10.57-10.48,15.81-15.75,2.86-2.86,5.73-5.67,8.54-8.59,.72-.74,1.6-1.43,1.82-2.58-.39-1.09-1.32-1.49-2.09-2.12-5.12-4.41-9.25-9.51-11.68-15.98-.83-2.12-1.54-4.3-2.31-6.42-.17-.46-.44-.92-.66-1.37-.33,.17-.5,.17-.61,.34-2.64,3.32-5.73,6.19-8.87,8.99-4.57,4.01-9.42,7.68-14.32,11.28-.61,.46-1.21,.97-1.76,1.43,.61,1.6,1.1,3.04,1.6,4.53,.66,1.95,.55,4.01,.55,6.01v30.47c0,2.46,0,4.93-.06,7.45-.11,2.46-.55,4.87-1.98,6.99-.11,.17-.11,.52-.22,.86,.61,.23,1.16,.52,1.71,.69,4.68,1.55,8.87,4.01,12.61,7.33,1.82,1.6,3.58,3.26,5.34,4.87,.66,.57,1.16,1.37,2.09,1.43,2.81-2.69,8.54-9.45,10.8-12.49,1.65-2.29,2.64-4.93,3.75-7.56,.11-.29,0-.63,.06-1.15h0Z"/>
    <path class="cls-1" d="M61.41,121.89c-.11-5.67-.22-11.34-.66-17.01-.55-7.22-1.76-14.32-3.19-21.42-.44-2.41-.99-4.81-1.82-7.05-1.27,.17-2.42,.63-3.41,1.43-8.04,6.01-13.11,14.21-15.81,24-2.2,8.02-2.7,16.21-1.49,24.46,.77,4.98,2.2,9.79,4.68,14.21,.17,.34,.39,.63,.55,.97,.22,.34,.39,.63,.61,.92s.44,.57,.61,.86c0,0,0,.06,.06,.06,.22,.29,.39,.52,.61,.74,0,.06,.06,.06,.06,.11,.17,.23,.39,.46,.55,.63,.06,.11,.17,.17,.28,.29,.11,.17,.28,.29,.39,.4l.28,.29c.17,.17,.33,.29,.5,.46,.11,.11,.22,.17,.28,.29,.11,.11,.28,.23,.39,.34,.11,.11,.22,.17,.28,.23,.06,.06,.17,.11,.22,.17h0c1.21,.97,3.14,2.46,6,3.26,.22,.06,.39,.11,.55,.17,.94,.23,1.71,.34,2.31,.34,.06,0,.11,0,.17-.06,.06-.06,.17-.11,.22-.29v-.06c.06-.11,.11-.17,.17-.34,.55-.74,1.32-1.83,2.15-3.21,.06-.06,.06-.11,.11-.23,1.1-1.89,2.97-5.1,3.69-10.42v-.17c0-.17,.06-.29,.06-.46,.06-.23,.06-.52,.06-.74,.06-.4,.06-.74,.06-1.15,.5-4.01,.61-8.02,.55-12.03h0Zm-6.33,25.6c-.06,.06-.06,.11-.11,.17h0c-.39,.46-1.16,1.37-2.2,1.49-.22,.06-.5,0-.66,0-.5-.11-.94-.34-1.27-.52-6.5-4.12-9.31-8.36-9.64-8.88,0-.06-.06-.06-.06-.06-2.86-4.87-4.24-10.25-4.85-15.87-1.1-10.42,.28-20.45,4.79-29.9,2.86-5.96,6.88-10.77,11.95-14.78,.44-.34,1.05-.57,1.6-.86,.88,2.29,1.21,4.53,1.71,6.76,1.32,6.24,2.26,12.6,2.81,18.96,.77,9.05,.94,18.1,.66,27.15-.11,5.9-1.71,11.34-4.74,16.32h0Z"/>
    <path class="cls-1" d="M372.48,87.92c-2.64-6.3-7.05-10.83-12.39-14.55-.33-.23-.77-.29-1.1-.4-.22,.29-.44,.46-.44,.57v30.7c0,.23,.17,.46,.33,.8,.83-.06,1.49-.57,2.09-1.03,1.71-1.43,3.47-2.81,5.12-4.3,1.65-1.49,3.3-2.98,4.96-4.53,2.2-2,2.7-4.3,1.43-7.27h0Zm-1.71,5.16c-.5,.52-.94,1.15-1.43,1.6-2.64,2.41-5.34,4.75-8.04,7.1-.22,.23-.55,.29-.83,.46-.17-.29-.39-.4-.39-.52v-26.06c.83-.17,1.21,.46,1.65,.8,3.8,3.21,7.1,6.87,9.14,11.57,.22,.52,.39,1.03,.61,1.55,.5,1.26,.28,2.46-.72,3.49h0Z"/>
    <path class="cls-2" d="M197.06,138.61c-.22,.4-.28,.69-.44,.86-3.91,4.07-7.82,8.13-11.79,12.2-.06,0-.17-.06-.22-.11s-.17-.11-.22-.17c-3.14-5.1-6.28-10.2-9.31-15.18,0-1.03,.55-1.6,1.05-2.29,.72-1.09,1.21-2.23,1.21-3.55,.06-1.72,.22-3.49,.22-5.21,.06-13.4,.11-26.75,.17-40.15v-2.46c.11-4.12-1.87-6.93-5.07-8.99-.83-.52-1.65-.97-2.64-1.49,.72-.92,1.6-1.32,2.31-1.89,1.93-1.49,3.86-2.92,5.67-4.47,2.31-2,4.08-4.53,5.62-7.27,.33-.57,.77-1.15,1.32-2,.22,1.09,.39,1.78,.55,2.46,.39,1.43,.77,2.81,1.27,4.18,.99,2.52,2.7,4.24,5.12,5.27,3.41,1.43,6.94,2,10.57,1.78,.33,0,.72-.11,1.05-.17,3.14-.46,7.44-5.44,7.77-8.31,.11-.97,.11-2.06-.22-2.98-1.21-3.72-2.48-7.45-3.86-11.11-1.05-2.81-2.31-5.5-3.58-8.25-.55-1.15-.55-2.12,.11-3.32,3.52-6.36,7.93-11.86,13.27-16.67,5.29-4.75,11.29-8.13,18.12-9.68,3.58-.8,7.1-1.2,10.74,0-.11,.17-.22,.52-.39,.57-6.72,1.83-12.39,5.67-17.35,10.6-4.3,4.24-7.38,9.28-9.2,15.18-1.1,3.55-1.49,7.16-1.54,10.83-.11,6.42,0,12.83-.06,19.25-.11,16.21-.33,32.42-.44,48.63,0,4.75,.17,9.51,.28,14.26,.06,3.84,1.87,6.76,4.57,9.22,.44,.4,.94,.8,1.38,1.2-.83,1.6-7.66,9.79-9.97,11.97-1.76-2.12-3.03-4.64-4.63-6.93-1.54-2.23-3.47-4.18-4.46-6.59,.06-.23,0-.34,.06-.4,2.09-2.98,2.37-6.42,2.37-9.91,0-13.86,.11-27.67,.17-41.53,0-1.37,0-2.75,.06-4.12,.06-3.26-1.27-5.67-3.97-7.22-.77-.46-1.54-.8-2.37-1.2-1.38-.63-2.75-.52-4.13,.11-3.52,1.66-6.06,4.35-7.6,8.02-.39,.86-.44,1.95-.5,2.98-.11,3.38-.11,6.76-.17,10.2-.06,9.62-.11,19.25-.17,28.87,0,1.03,0,2,.06,3.04,.28,5.04,2.75,8.53,6.94,10.88,.83,.4,1.54,.74,2.26,1.09h0Z"/>
    <path class="cls-2" d="M277.48,155.22c-1.1-2.41-1.93-4.41-2.86-6.42-2.31-4.75-5.67-8.53-9.91-11.57-2.97-2.18-6.28-3.32-9.86-3.49-1.54-.11-3.14,0-4.79,0,.06-.46,0-.74,.11-.97,4.02-5.33,7.88-10.77,11.13-16.67,.22-.34,.5-.69,.94-1.2,.39,.52,.66,.86,.83,1.2,2.53,4.98,5.89,9.34,9.42,13.58,1.43,1.72,3.14,3.21,4.96,4.53,1.6,1.15,3.08,1.03,4.63-.17,1.93-1.55,3.58-3.32,4.57-5.61,1.27-2.92,1.21-5.84-.06-8.76-1.1-2.52-2.86-4.58-4.68-6.59-2.42-2.63-5.23-4.93-8.04-7.1-4.35-3.32-8.43-6.87-12.23-10.88-2.37-2.52-4.35-5.27-5.89-8.36-.44-.8-.77-1.66-1.05-2.52-.55-1.72-.44-2.06,.99-3.26,5.95-5.04,11.57-10.48,16.91-16.15,3.03-3.21,5.95-6.47,8.98-9.74,.17-.17,.44-.29,.77-.52,.83,.97,1.6,1.95,2.37,2.92,1.93,2.41,4.08,4.58,6.44,6.47,2.09,1.66,4.41,2.69,7.1,2.29,.77-.11,1.54-.34,2.31-.57,.83-.29,1.65-.63,2.59-1.03,.39,.8,.72,1.55,1.1,2.35-.28,.4-.5,.8-.83,1.03-3.8,3.09-7.6,6.19-11.46,9.34-.5,.4-.99,.8-1.43,1.2-.94,.8-1.6,1.72-1.21,3.32-.72-.34-1.21-.52-1.6-.8-3.19-2.29-6.33-4.64-9.47-6.99-.28-.23-.55-.46-.88-.63-.5-.29-.99-.34-1.49,0-.55,.34-1.05,.69-1.49,1.09-1.49,1.43-2.97,2.86-4.46,4.3-3.14,3.15-3.19,8.31,.5,11.63,1.82,1.6,3.8,2.98,5.84,4.3,4.3,2.75,8.65,5.27,12.94,8.02,3.52,2.29,6.66,5.04,9.09,8.65,1.65,2.46,2.86,5.1,3.36,8.02,.83,4.58,0,8.76-3.41,12.09-1.87,1.83-3.8,3.55-5.78,5.21-4.52,3.89-8.32,8.42-11.51,13.52-1.1,1.6-2.15,3.15-3.47,4.98h0Z"/>
    <path class="cls-2" d="M399.97,150.24c-4.3-4.3-8.48-8.42-12.72-12.6,.17-1.26,.83-2.12,1.43-2.98,2.2-3.32,3.36-6.99,3.41-11.05,0-2.75,.17-5.5,.22-8.25,.06-10.83,0-21.65,.06-32.42,0-3.44-.99-6.47-3.25-9.05-1.16-1.32-2.42-2.63-3.8-4.07,1.65-1.83,3.69-3.32,5.45-5.04,1.71-1.66,3.3-3.49,5.12-5.38,3.08,5.44,6.88,10.02,12.39,12.89,2.2-1.03,3.8-2.75,5.56-4.18,1.87-1.49,3.75-3.09,5.45-4.75,1.65-1.6,3.19-3.32,4.9-5.16,.83,.52,1.1,1.43,1.6,2.12,2.09,3.38,4.3,6.7,7.16,9.45,1.54,1.49,3.25,2.81,4.85,4.24,.33,.29,.66,.57,.94,.8,0,.92-.72,1.15-1.1,1.6-.66,.74-1.32,1.43-2.04,2.18-1.1,1.2-1.54,2.58-1.54,4.24,.06,3.04,0,6.07,0,9.05,0,8.99,0,17.93-.06,26.92,0,3.09-.17,6.24-.17,9.34,0,1.09,.06,2.18,.11,3.32,.11,2.52,1.38,4.3,3.47,5.44,.83,.46,1.71,.92,2.53,1.37-1.27,2.63-7.82,11.4-10.19,13.52-.33-.4-.72-.69-.99-1.15-2.7-4.18-5.45-8.36-8.1-12.54-.55-.92-.99-1.89-1.54-2.98,.44-.63,.83-1.2,1.27-1.72,2.09-2.29,3.3-4.93,3.36-8.13,.06-4.41,.28-8.76,.33-13.17,.06-8.88,.06-17.76,.11-26.63v-.8c0-5.33-2.86-9.45-7.71-11.28-1.05-.4-2.04-.52-3.03,.06-.22,.11-.5,.23-.72,.34-3.25,1.83-6.11,4.3-8.81,6.93-.39,.4-.61,1.09-.77,1.72-.11,.52-.11,1.09-.11,1.66-.17,13.75-.28,27.49,.11,41.24,.06,2.58,.55,5.1,1.38,7.5,.77,2.12,1.82,3.95,3.8,5.1,.22,.11,.33,.4,.5,.57-.94,2.29-5.18,8.02-8.87,11.74h0Z"/>
    <path class="cls-2" d="M445.35,77.1c8.81-6.19,17.35-12.66,24.73-20.68,.22,.29,.5,.46,.55,.69,2.31,10.54,7.55,19.02,16.03,25.32,.28,.23,.5,.46,.88,.86-.33,.46-.61,.92-.94,1.32-2.92,3.55-6.17,6.76-9.47,9.91-5.29,4.98-10.46,10.08-15.7,15.12-.33,.29-.61,.69-.94,.97-1.87,1.83-3.03,4.07-3.25,6.7-.44,4.7-.22,9.34,2.04,13.63,.77,1.43,1.65,2.81,2.75,4.01,2.53,2.75,5.67,3.49,9.2,2.52,1.71-.52,3.25-1.37,4.68-2.46,5.01-3.61,9.58-7.73,13.33-12.83,.33-.46,.77-.86,1.49-1.15-.17,.52-.28,.97-.44,1.49-1.43,3.55-3.25,6.87-5.23,10.2-3.3,5.56-6.28,11.28-8.32,17.41-1.16,3.44-1.87,7.05-2.86,10.6-1.1,4.07-2.37,8.08-4.3,11.74-2.37,4.47-5.67,7.9-10.02,10.2-1.1,.57-2.2,1.09-3.91,1.15,.77-.63,1.16-.97,1.6-1.26,1.82-1.15,3.36-2.63,4.68-4.41,1.82-2.35,3.41-4.87,4.57-7.68,1.6-3.78,2.04-7.79,1.43-11.86-.55-3.61-2.2-6.76-4.9-9.16-2.97-2.75-6.28-5.04-9.8-6.87-2.53-1.32-5.12-2.41-7.71-3.61-.33-.11-.61-.34-.99-.57,.44-.86,.83-1.72,1.21-2.46,1.54-2.75,2.2-5.67,2.2-8.94-.11-13-.06-26,0-39.01,0-3.55-.44-6.93-2.31-9.97-.17-.23-.17-.46-.28-.92h0Zm13.44,26.98c.61-.29,.99-.46,1.32-.69,4.13-3.15,8.04-6.59,11.62-10.37,1.49-1.6,1.87-3.44,1.27-5.56-.83-2.86-2.2-5.38-4.13-7.56-2.59-2.92-5.67-5.16-8.81-7.39-.33-.23-.77-.23-1.27-.34-.11,.52-.28,.86-.28,1.2-.06,9.91-.06,19.76-.06,29.67-.06,.23,.11,.46,.33,1.03h0Z"/>
    <path class="cls-2" d="M185.44,164.5c-3.58,1.09-6.99,2.23-10.41,3.44-2.53,.86-4.9,2-7.05,3.67-1.27,.92-2.2,2.12-2.92,3.49-1.65,3.26-1.21,6.42,.66,9.34,.77,1.2,1.87,2.12,2.86,3.21,.22,.23,.39,.46,.61,.74-.22,.11-.33,.23-.39,.23-.88-.17-1.71-.4-2.59-.63-7.44-2-14.87-3.72-22.47-4.93-13.33-2.12-26.66-2.12-40.04-.57-10.46,1.26-20.65,3.72-30.29,8.13-4.85,2.23-9.42,4.98-13.33,8.76-2.86,2.69-5.07,5.84-6,9.79-.11,.52-.28,1.03-.44,1.55-.61,.11-.61-.29-.55-.63,.61-3.67,1.87-7.05,3.8-10.14,1.38-2.23,3.08-4.18,5.01-6.01,5.23-4.87,11.13-8.65,17.4-11.86,8.43-4.3,17.35-7.05,26.49-9.16,7.55-1.72,15.15-3.26,22.86-4.35,5.84-.8,11.73-1.49,17.57-2.06,6.06-.63,12.12-1.15,18.18-1.55,4.46-.29,8.98-.29,13.49-.4,2.09-.06,4.24-.11,6.33-.17,.39-.06,.83,.06,1.21,.11h0Z"/>
    <path class="cls-2" d="M136.2,72.51c3.69-4.7,7.33-9.11,10.13-14.26,.55,.34,.99,.57,1.38,.92,3.75,3.15,7.55,6.3,11.29,9.51,2.42,2.06,4.02,4.81,5.56,7.62,.61,1.09,.5,1.49-.33,2.41-.11,.11-.22,.29-.39,.4-1.38,1.15-1.71,2.63-1.71,4.41,.06,3.55-.06,7.16-.06,10.71,0,10.37-.06,20.68-.06,31.05v1.37c.06,4.75,1.98,8.48,5.95,10.94,.28,.17,.55,.46,.88,.8-.28,.57-.5,1.2-.83,1.72-3.52,4.87-6,7.79-7.99,9.22-1.32-2.23-2.59-4.53-3.97-6.7-1.32-2.18-2.75-4.24-4.08-6.24-.99-.34-1.71,0-2.31,.52-1.05,.86-2.09,1.72-3.03,2.63-2.81,2.75-5.62,5.56-8.43,8.31-.5,.46-1.05,.92-1.71,1.49-.39-.74-.66-1.26-.94-1.83-1.98-4.01-4.41-7.73-7.88-10.54-1.32-1.09-2.04-2.46-2.26-4.18-.28-1.89-.61-3.78-.88-5.67-.33-2.41,.28-4.75,.66-7.1,.72-4.12,2.42-7.79,4.52-11.34,4.74-8.02,10.91-14.55,18.29-19.88,1.21-.86,2.42-1.83,3.58-2.81,.61-.52,.88-1.2,.55-1.95-.5-1.15-.88-2.41-1.6-3.44-2.7-4.07-6.61-6.19-11.07-7.39-1.05-.29-1.98-.4-3.3-.69h0Zm16.03,18.16c-.55,.17-.72,.17-.83,.29-4.79,4.81-8.98,10.08-11.57,16.55-2.31,5.79-3.3,11.74-2.37,17.99,.66,4.58,2.81,8.19,6.44,10.88,.94,.69,1.82,.69,2.7,.06,1.87-1.26,3.36-2.92,4.19-5.16,.99-2.58,1.38-5.33,1.38-8.08,.06-10.25,.11-20.51,.17-30.82,0-.4-.06-.97-.11-1.72h0Z"/>
    <path class="cls-2" d="M119.35,128.53c0,.46,.06,.8-.06,1.09-1.05,2.58-2.04,5.27-3.75,7.56-2.26,3.09-7.99,9.79-10.8,12.49-.94-.06-1.43-.86-2.09-1.43-1.76-1.6-3.58-3.26-5.34-4.87-3.69-3.32-7.93-5.79-12.61-7.33-.55-.17-1.1-.46-1.71-.69,.11-.4,.11-.69,.22-.86,1.43-2.12,1.93-4.53,1.98-6.99,.11-2.46,.06-4.93,.06-7.45v-30.47c0-2,.11-4.07-.55-6.01-.5-1.43-1.05-2.86-1.6-4.53,.55-.46,1.16-.97,1.76-1.43,4.9-3.61,9.75-7.22,14.32-11.28,3.14-2.81,6.22-5.67,8.87-8.99,.11-.11,.28-.17,.61-.34,.22,.46,.5,.86,.66,1.37,.77,2.12,1.49,4.3,2.31,6.42,2.42,6.47,6.61,11.63,11.68,15.98,.72,.63,1.65,1.09,2.09,2.12-.22,1.15-1.1,1.83-1.82,2.58-2.81,2.92-5.67,5.73-8.54,8.59-5.29,5.27-10.57,10.48-15.81,15.75-2.48,2.52-3.52,5.61-3.47,9.16,.06,2.58,.33,5.1,1.38,7.5,1.98,4.58,5.34,7.05,10.24,7.33,2.97,.17,5.51-.74,7.93-2.46,1.27-.86,2.59-1.78,4.02-2.81h0Zm-22.8-55.96c-.17,.74-.39,1.15-.39,1.6-.06,1.2-.06,2.35-.06,3.55-.06,8.71-.11,17.36-.17,26,0,.29,.17,.63,.33,1.09,.61-.34,1.1-.57,1.49-.86,3.36-2.63,6.61-5.44,9.69-8.42,.83-.8,1.6-1.72,2.37-2.58,1.82-2.06,2.09-4.41,.99-6.87-.72-1.66-1.65-3.26-2.7-4.7-2.53-3.38-5.78-5.84-9.31-7.96-.61-.29-1.27-.46-2.26-.86h0Z"/>
    <path class="cls-3" d="M360.48,102.24c-.17-.29-.39-.4-.39-.57v-26.06c.83-.17,1.21,.46,1.65,.8,3.8,3.21,7.1,6.87,9.14,11.57,.22,.52,.39,1.03,.61,1.55,.5,1.32,.33,2.52-.66,3.55-.5,.52-.94,1.15-1.43,1.6-2.64,2.41-5.34,4.75-8.04,7.1-.28,.23-.61,.34-.88,.46h0Z"/>
    <path class="cls-1" d="M458.79,104.07c-.22-.57-.44-.8-.44-1.03,0-9.91,.06-19.76,.06-29.67,0-.34,.17-.69,.28-1.2,.5,.11,.94,.11,1.27,.34,3.14,2.23,6.22,4.47,8.81,7.39,1.93,2.18,3.36,4.7,4.13,7.56,.61,2.12,.22,4.01-1.27,5.56-3.58,3.84-7.49,7.22-11.62,10.37-.17,.23-.61,.34-1.21,.69h0Zm1.05-2.29c3.58-2.98,6.61-5.61,9.47-8.48,.55-.57,1.16-1.15,1.65-1.78,.83-.97,1.1-2.06,.66-3.32-.55-1.43-1.05-2.92-1.76-4.3-1.54-2.86-3.86-4.98-6.22-6.99-1.05-.86-2.15-1.83-3.75-2.52-.05,9.11-.17,17.87-.05,27.38h0Z"/>
    <path class="cls-1" d="M152.23,90.67c.06,.74,.06,1.26,.06,1.83-.06,10.25-.11,20.51-.17,30.82,0,2.75-.44,5.44-1.38,8.08-.83,2.23-2.31,3.89-4.19,5.16-.88,.63-1.76,.63-2.7-.06-3.64-2.69-5.78-6.3-6.44-10.88-.94-6.24,.06-12.2,2.37-17.99,2.59-6.47,6.77-11.74,11.57-16.55,.17-.17,.39-.17,.88-.4h0Zm-1.43,3.67c-.55,.29-.77,.34-.88,.46-4.68,5.33-8.37,11.23-10.3,18.27-1.27,4.58-1.38,9.16-.33,13.8,.72,2.98,2.2,5.56,4.52,7.56,1.43,1.2,2.15,1.2,3.36-.11,1.65-1.78,2.7-3.84,3.08-6.24,.28-1.78,.5-3.61,.5-5.44,.06-8.59,.06-17.18,.06-25.78-.06-.74-.06-1.49,0-2.52h0Z"/>
    <path class="cls-1" d="M96.55,72.57c.99,.4,1.65,.57,2.26,.97,3.52,2.12,6.77,4.58,9.31,7.96,1.05,1.43,1.98,3.04,2.7,4.7,1.1,2.46,.83,4.81-.99,6.87-.77,.86-1.54,1.78-2.37,2.58-3.08,2.98-6.33,5.79-9.69,8.42-.39,.29-.88,.52-1.49,.86-.17-.46-.33-.8-.33-1.09,.06-8.71,.11-17.36,.17-26,0-1.2,0-2.41,.06-3.55,.06-.57,.22-.97,.39-1.72h0Zm1.1,2c-.17,.86-.28,1.2-.28,1.49v24.74c0,.29,.17,.63,.28,1.03,.39-.17,.66-.29,.83-.4,2.26-1.95,4.52-3.78,6.66-5.84,1.49-1.43,2.81-2.98,4.19-4.58,.72-.8,.88-1.83,.5-2.86-.55-1.43-1.05-2.92-1.82-4.24-1.71-2.98-4.3-5.04-6.94-7.05-.94-.74-2.04-1.37-3.41-2.29h0Z"/>
    <path class="cls-3" d="M459.84,101.78c-.11-9.51,.06-18.33,0-27.32,1.65,.69,2.7,1.6,3.75,2.52,2.42,2,4.74,4.12,6.22,6.99,.72,1.37,1.21,2.81,1.76,4.3,.44,1.2,.17,2.35-.66,3.32-.5,.63-1.1,1.2-1.65,1.78-2.81,2.86-5.84,5.44-9.42,8.42h0Z"/>
    <path class="cls-3" d="M150.8,94.34v2.46c0,8.59,0,17.18-.06,25.78,0,1.83-.22,3.67-.5,5.44-.39,2.41-1.43,4.47-3.08,6.24-1.21,1.32-1.93,1.37-3.36,.11-2.31-2-3.8-4.58-4.52-7.56-1.05-4.58-.94-9.16,.33-13.8,1.93-7.05,5.56-12.94,10.3-18.27,.11-.06,.28-.11,.88-.4h0Z"/>
    <path class="cls-3" d="M97.65,74.58c1.38,.92,2.48,1.55,3.47,2.29,2.64,2,5.23,4.12,6.94,7.05,.77,1.32,1.27,2.81,1.82,4.24,.39,1.03,.22,2-.5,2.86-1.38,1.55-2.7,3.15-4.19,4.58-2.15,2-4.41,3.89-6.66,5.84-.17,.17-.44,.23-.83,.4-.11-.4-.28-.69-.28-1.03v-24.74c-.06-.34,.06-.69,.22-1.49h0Z"/>
  </g>
</svg>